<svg width="34" height="34" viewBox="0 0 34 34" fill="none" xmlns="http://www.w3.org/2000/svg">
<rect x="0.5" y="0.5" width="33" height="33" rx="16.5" fill="#ECFDF5" stroke="#059669"/>
<path d="M21.5833 9.5V15.3333M24.5 12.4167H18.6666" stroke="#059669" stroke-width="1.5" stroke-linecap="round" stroke-linejoin="round"/>
<path d="M14.6319 11.7602L14.2963 11.0052C14.0769 10.5116 13.9672 10.2647 13.8032 10.0758C13.5976 9.83912 13.3296 9.66495 13.0297 9.57321C12.7905 9.5 12.5204 9.5 11.9802 9.5C11.1899 9.5 10.7948 9.5 10.4631 9.65191C10.0724 9.83085 9.71953 10.2194 9.57894 10.6255C9.45959 10.9702 9.49378 11.3245 9.56215 12.0331C10.2899 19.5752 14.4248 23.7101 21.9669 24.4378C22.6755 24.5063 23.0297 24.5404 23.3745 24.4211C23.7806 24.2805 24.1692 23.9276 24.3481 23.5369C24.5 23.2052 24.5 22.8101 24.5 22.0198C24.5 21.4796 24.5 21.2095 24.4268 20.9703C24.3351 20.6704 24.1609 20.4024 23.9242 20.1968C23.7352 20.0328 23.4884 19.9231 22.9948 19.7037L22.2398 19.3681C21.7052 19.1305 21.4379 19.0118 21.1663 18.9859C20.9063 18.9612 20.6443 18.9977 20.4009 19.0924C20.1467 19.1914 19.9219 19.3787 19.4725 19.7532C19.0251 20.126 18.8014 20.3124 18.5281 20.4123C18.2858 20.5008 17.9655 20.5336 17.7102 20.4959C17.4224 20.4535 17.2019 20.3358 16.7611 20.1001C15.3893 19.3671 14.6329 18.6107 13.8999 17.2389C13.6643 16.7981 13.5465 16.5776 13.5041 16.2898C13.4665 16.0345 13.4992 15.7142 13.5878 15.4719C13.6876 15.1986 13.874 14.9749 14.2468 14.5275C14.6214 14.0781 14.8086 13.8534 14.9076 13.5991C15.0024 13.3558 15.0388 13.0937 15.0141 12.8337C14.9883 12.5621 14.8695 12.2948 14.6319 11.7602Z" fill="#059669"/>
</svg>
