<svg width="74" height="38" viewBox="0 0 74 38" fill="none" xmlns="http://www.w3.org/2000/svg">
<rect width="74" height="38" rx="19" fill="black" fill-opacity="0.33"/>
<rect x="2" y="2" width="34" height="34" rx="17" fill="white"/>
<path d="M18.7356 13.6725C15.5144 13.6725 12.9196 16.2674 12.9196 19.4885C12.9196 22.7096 15.5144 25.3045 18.7356 25.3045C21.9567 25.3045 24.5515 22.7096 24.5515 19.4885C24.5515 16.2674 21.9567 13.6725 18.7356 13.6725Z" fill="#295E6A"/>
<path d="M18.7333 13.1364C19.2701 13.1364 19.6279 12.7785 19.6279 12.2417V10.8103C19.6279 10.2735 19.2701 9.91565 18.7333 9.91565C18.1965 9.91565 17.8386 10.2735 17.8386 10.8103V12.2417C17.8386 12.6891 18.1965 13.1364 18.7333 13.1364Z" fill="#295E6A"/>
<path d="M12.7347 15.0155C12.9136 15.1944 13.182 15.2839 13.3609 15.2839C13.5399 15.2839 13.8083 15.1944 13.9872 15.0155C14.3451 14.6577 14.3451 14.1209 13.9872 13.763L13.0031 12.7789C12.6452 12.421 12.1084 12.421 11.7506 12.7789C11.3927 13.1368 11.3927 13.6735 11.7506 14.0314L12.7347 15.0155Z" fill="#295E6A"/>
<path d="M12.1129 19.7568C12.1129 19.22 11.755 18.8622 11.2182 18.8622H9.78678C9.24999 18.8622 8.89213 19.22 8.89213 19.7568C8.89213 20.2936 9.24999 20.6515 9.78678 20.6515H11.2182C11.6655 20.6515 12.1129 20.2936 12.1129 19.7568Z" fill="#295E6A"/>
<path d="M12.7346 24.4989L11.7505 25.483C11.3926 25.8409 11.3926 26.3777 11.7505 26.7355C11.9294 26.9145 12.1978 27.0039 12.3767 27.0039C12.5557 27.0039 12.8241 26.9145 13.003 26.7355L13.9871 25.7514C14.345 25.3936 14.345 24.8568 13.9871 24.4989C13.6293 24.1411 13.0925 24.1411 12.7346 24.4989Z" fill="#295E6A"/>
<path d="M18.7333 26.3796C18.1965 26.3796 17.8386 26.7374 17.8386 27.2742V28.7057C17.8386 29.2425 18.1965 29.6003 18.7333 29.6003C19.2701 29.6003 19.6279 29.2425 19.6279 28.7057V27.2742C19.6279 26.8269 19.2701 26.3796 18.7333 26.3796Z" fill="#295E6A"/>
<path d="M24.7327 24.4989C24.3749 24.1411 23.8381 24.1411 23.4802 24.4989C23.1224 24.8568 23.1224 25.3936 23.4802 25.7514L24.4643 26.7355C24.6433 26.9145 24.9117 27.0039 25.0906 27.0039C25.2695 27.0039 25.5379 26.9145 25.7169 26.7355C26.0747 26.3777 26.0747 25.8409 25.7169 25.483L24.7327 24.4989Z" fill="#295E6A"/>
<path d="M27.6785 18.8622H26.2471C25.7103 18.8622 25.3524 19.22 25.3524 19.7568C25.3524 20.2936 25.7103 20.6515 26.2471 20.6515H27.6785C28.2153 20.6515 28.5732 20.2936 28.5732 19.7568C28.5732 19.22 28.2153 18.8622 27.6785 18.8622Z" fill="#295E6A"/>
<path d="M24.1065 15.2839C24.3749 15.2839 24.5538 15.1944 24.7327 15.0155L25.7169 14.0314C26.0747 13.6735 26.0747 13.1368 25.7169 12.7789C25.359 12.421 24.8222 12.421 24.4643 12.7789L23.4802 13.763C23.1224 14.1209 23.1224 14.6577 23.4802 15.0155C23.6592 15.1944 23.8381 15.2839 24.1065 15.2839Z" fill="#295E6A"/>
<path d="M55.1441 28.351C52.7284 28.351 50.4021 27.4563 48.6127 25.6669C45.0339 22.088 45.0339 16.4513 48.5232 12.962C49.7758 11.6199 51.4758 10.7252 53.3547 10.4568C53.7126 10.3673 54.0705 10.5462 54.2494 10.9041C54.4284 11.262 54.4284 11.6199 54.1599 11.8883C52.1916 14.1251 52.3705 17.6145 54.5178 19.7618C56.6651 21.9091 60.0651 22.088 62.3018 20.1197C62.5702 19.8513 63.0176 19.8513 63.286 20.0302C63.6439 20.2091 63.8229 20.567 63.7334 20.9249C63.465 22.8038 62.5703 24.4143 61.3177 25.7564C59.6177 27.4563 57.3809 28.351 55.1441 28.351Z" fill="white" fill-opacity="0.38"/>
</svg>
