<svg width="20" height="21" viewBox="0 0 20 21" fill="none" xmlns="http://www.w3.org/2000/svg">
<path d="M10.4167 2.17646C10.2787 2.16996 10.1398 2.16667 10 2.16667C5.39817 2.16667 1.66669 5.73631 1.66669 10.1389C1.66669 12.2543 2.5278 14.1763 3.93243 15.6026C4.24169 15.9167 4.44817 16.3457 4.36484 16.7873C4.22731 17.5093 3.91564 18.1828 3.45928 18.7442C4.65998 18.9675 5.90847 18.7664 6.97918 18.197C7.35767 17.9958 7.54691 17.8951 7.68046 17.8747C7.814 17.8543 8.00529 17.8902 8.38785 17.9621C8.91935 18.0618 9.45894 18.1119 10 18.1112C14.6019 18.1112 18.3334 14.5416 18.3334 10.1389C18.3334 9.98042 18.3285 9.82292 18.3189 9.66667" stroke="black" stroke-width="1.5" stroke-linecap="round" stroke-linejoin="round"/>
<path d="M12.5 5.08334H18.3333M15.4167 2.16667V8.00001" stroke="black" stroke-width="1.5" stroke-linecap="round" stroke-linejoin="round"/>
<path d="M9.99627 10.5H10.0038M13.3259 10.5H13.3334M6.66669 10.5H6.67416" stroke="black" stroke-width="2" stroke-linecap="round" stroke-linejoin="round"/>
</svg>
