<svg width="21" height="23" viewBox="0 0 21 23" fill="none" xmlns="http://www.w3.org/2000/svg">
<g clip-path="url(#clip0_1_3769)">
<path d="M20.16 14.2877L18.2369 7.20482C17.4632 4.34506 17.0763 2.92627 15.9379 2.27229C15.0427 1.76241 13.9595 1.88434 12.1469 2.32771C12.2132 3.35856 11.7158 4.3894 10.7874 4.94362C10.4779 5.12097 10.1574 5.24289 9.81477 5.28723L9.47213 6.70603C9.30635 7.2935 8.7095 7.63711 8.12371 7.48193C7.52687 7.32675 7.17319 6.71711 7.33898 6.11856L7.68161 4.71084C7.40529 4.50024 7.17319 4.22313 6.99635 3.91277C6.96319 3.84627 6.93003 3.77976 6.90792 3.71325L5.33845 4.12337C2.44266 4.88819 0.994767 5.27615 0.331609 6.39566C-0.320496 7.52627 0.0663463 8.95615 0.84003 11.8159L2.76319 18.921C2.99529 19.7523 3.13898 20.2954 3.34898 20.6834C3.44845 20.8718 3.55898 21.0159 3.70266 21.1489C4.13371 21.559 4.76371 21.681 6.01266 21.9359L10.5885 22.8559C11.0969 22.9667 11.3511 23.0111 11.6053 23C11.7821 22.9889 11.959 22.9557 12.2242 22.8781C12.3127 22.8559 12.4232 22.8337 12.5337 22.8005L15.6616 21.9692C18.5574 21.2043 20.0053 20.8275 20.6685 19.6969C21.3206 18.5774 20.9337 17.1475 20.16 14.2877ZM6.03477 21.3706C5.30529 21.2265 4.81898 21.1267 4.4874 20.9937C5.1174 20.0627 5.71424 19.1981 6.63161 19.1205C8.0795 19.1205 9.38371 20.8829 10.3563 22.2463L6.03477 21.3706Z" fill="#292929"/>
<path d="M11.55 1.26362C11.2184 0.676148 10.6768 0.254943 10.0358 0.0886776C9.39471 -0.0886718 8.7205 2.88544e-06 8.14576 0.343617C7.00734 1.01976 6.58734 2.46073 7.17313 3.63567C7.18418 3.68 7.21734 3.73542 7.23945 3.77976C7.42734 4.11229 7.68155 4.3894 7.99102 4.61109L7.58208 6.16289C7.4605 6.60627 7.72576 7.06073 8.16787 7.18265C8.24523 7.19374 8.31155 7.20482 8.38892 7.20482C8.75366 7.20482 9.08523 6.96097 9.18471 6.5841L9.59366 5.04338C9.95839 5.01012 10.3121 4.89928 10.6437 4.69976C11.4726 4.21205 11.9258 3.31422 11.8705 2.4053C11.8594 2.01735 11.7489 1.6294 11.55 1.26362ZM9.80365 3.26988C9.61576 3.38073 9.39471 3.41398 9.18471 3.35856C9.07418 3.3253 8.96365 3.26988 8.87523 3.19229C8.79787 3.12579 8.73155 3.0482 8.67629 2.95952C8.44418 2.53832 8.58787 2.01735 8.98576 1.7735C9.10734 1.69591 9.25102 1.66265 9.39471 1.66265C9.46102 1.66265 9.53839 1.67374 9.60471 1.68482C9.81471 1.75133 9.99155 1.88434 10.1131 2.08386C10.2458 2.32771 10.2568 2.61591 10.1463 2.84868C10.091 3.02603 9.96944 3.17012 9.80365 3.26988Z" fill="#292929"/>
</g>
<defs>
<clipPath id="clip0_1_3769">
<rect width="21" height="23" fill="white"/>
</clipPath>
</defs>
</svg>
