<svg width="24" height="24" viewBox="0 0 24 24" fill="none" xmlns="http://www.w3.org/2000/svg">
<path d="M6.25 10.5C8.59721 10.5 10.5 8.59721 10.5 6.25C10.5 3.90279 8.59721 2 6.25 2C3.90279 2 2 3.90279 2 6.25C2 8.59721 3.90279 10.5 6.25 10.5Z" fill="#292929"/>
<path d="M18 9.35714V10.5M18 9.35714C16.9878 9.35714 16.0961 8.85207 15.573 8.08517M18 9.35714C19.0122 9.35714 19.9039 8.85207 20.427 8.08517M15.573 8.08517L14.5004 8.78571M15.573 8.08517C15.2637 7.63159 15.0833 7.08643 15.0833 6.5C15.0833 5.91364 15.2636 5.36854 15.5729 4.915M20.427 8.08517L21.4996 8.78571M20.427 8.08517C20.7363 7.63159 20.9167 7.08643 20.9167 6.5C20.9167 5.91364 20.7364 5.36854 20.4271 4.915M18 3.64286C19.0123 3.64286 19.9041 4.148 20.4271 4.915M18 3.64286C16.9877 3.64286 16.0959 4.148 15.5729 4.915M18 3.64286V2.5M20.4271 4.915L21.5 4.21429M15.5729 4.915L14.5 4.21429" stroke="#292929" stroke-width="1.5" stroke-linecap="round"/>
<path d="M17.75 22C20.0972 22 22 20.0972 22 17.75C22 15.4028 20.0972 13.5 17.75 13.5C15.4028 13.5 13.5 15.4028 13.5 17.75C13.5 20.0972 15.4028 22 17.75 22Z" fill="#292929"/>
<path d="M6.25 22C8.59721 22 10.5 20.0972 10.5 17.75C10.5 15.4028 8.59721 13.5 6.25 13.5C3.90279 13.5 2 15.4028 2 17.75C2 20.0972 3.90279 22 6.25 22Z" fill="#292929"/>
</svg>
