<svg width="288" height="162" viewBox="0 0 288 162" fill="none" xmlns="http://www.w3.org/2000/svg">
<path d="M167.623 46.4903C157.96 46.4903 148.147 46.0983 138.956 43.5383C129.939 41.0245 121.66 36.1813 114.279 30.5657C109.436 26.8988 105.054 23.993 98.77 24.4311C92.6402 24.7518 86.7754 27.0314 82.0381 30.9349C74.047 37.9227 75.2579 50.8493 78.4405 59.9359C83.249 73.6235 97.836 83.1366 110.255 89.3289C124.588 96.4899 140.329 100.687 156.126 102.993C169.964 105.104 187.734 106.626 199.726 97.5853C210.75 89.2828 213.771 70.3254 211.073 57.5258C210.416 53.742 208.399 50.3292 205.399 47.9318C197.662 42.27 186.119 46.0521 177.424 46.2366C174.196 46.3518 170.921 46.4903 167.623 46.4903Z" fill="#F2F2F2"/>
<path d="M143.995 125.479C167.374 125.479 186.326 124.297 186.326 122.839C186.326 121.38 167.374 120.198 143.995 120.198C120.616 120.198 101.664 121.38 101.664 122.839C101.664 124.297 120.616 125.479 143.995 125.479Z" fill="#F2F2F2"/>
<path d="M204.5 30.1621C205.124 30.1621 205.63 29.6561 205.63 29.0321C205.63 28.4081 205.124 27.902 204.5 27.902C203.876 27.902 203.37 28.4081 203.37 29.0321C203.37 29.6563 203.876 30.1621 204.5 30.1621Z" fill="#CFCFCF"/>
<path d="M155.768 22.1141C156.392 22.1141 156.898 21.608 156.898 20.9841C156.898 20.3601 156.392 19.854 155.768 19.854C155.144 19.854 154.638 20.3601 154.638 20.9841C154.638 21.608 155.144 22.1141 155.768 22.1141Z" fill="#CFCFCF"/>
<path d="M110.636 95.3835V100.342" stroke="#BABABA" stroke-width="2" stroke-linecap="round" stroke-linejoin="round"/>
<path d="M108.156 97.8627H113.115" stroke="#BABABA" stroke-width="2" stroke-linecap="round" stroke-linejoin="round"/>
<path d="M92.4507 0.999817V5.95818" stroke="#BABABA" stroke-width="2" stroke-linecap="round" stroke-linejoin="round"/>
<path d="M89.9606 3.47913H94.9305" stroke="#BABABA" stroke-width="2" stroke-linecap="round" stroke-linejoin="round"/>
<path d="M182.337 26.5411V31.511" stroke="#BABABA" stroke-width="2" stroke-linecap="round" stroke-linejoin="round"/>
<path d="M179.858 29.0324H184.816" stroke="#BABABA" stroke-width="2" stroke-linecap="round" stroke-linejoin="round"/>
<path d="M137.457 92.9384C142.784 100.386 150.847 105.418 159.878 106.93C168.909 108.444 178.171 106.315 185.635 101.01C186.557 100.355 187.446 99.6553 188.298 98.9116L202.055 103.074L196.785 87.6802C199.416 82.1736 200.543 76.0692 200.052 69.9864C199.561 63.9036 197.47 58.0588 193.991 53.0454C190.511 48.0318 185.768 44.0279 180.242 41.4398C174.715 38.8518 168.602 37.7718 162.523 38.3093C156.444 38.8468 150.616 40.9831 145.629 44.5007C140.643 48.0185 136.675 52.7928 134.13 58.3392C131.585 63.8855 130.552 70.0065 131.136 76.0812C131.72 82.1558 133.901 87.9674 137.458 92.9269V92.9384H137.457Z" fill="white" stroke="#BABABA" stroke-width="2" stroke-linecap="round" stroke-linejoin="round"/>
<path d="M177.551 75.1569C178.813 75.1569 179.834 74.1346 179.834 72.8738C179.834 71.6129 178.813 70.5906 177.551 70.5906C176.29 70.5906 175.268 71.6129 175.268 72.8738C175.268 74.1348 176.29 75.1569 177.551 75.1569Z" fill="#BABABA"/>
<path d="M166.538 75.1569C167.8 75.1569 168.822 74.1346 168.822 72.8738C168.822 71.6129 167.8 70.5906 166.538 70.5906C165.277 70.5906 164.255 71.6129 164.255 72.8738C164.255 74.1348 165.277 75.1569 166.538 75.1569Z" fill="#BABABA"/>
<path d="M155.538 75.1569C156.799 75.1569 157.821 74.1346 157.821 72.8738C157.821 71.6129 156.799 70.5906 155.538 70.5906C154.277 70.5906 153.255 71.6129 153.255 72.8738C153.254 74.1348 154.277 75.1569 155.538 75.1569Z" fill="#BABABA"/>
<path d="M148.735 69.4036C143.408 76.8513 135.345 81.883 126.314 83.3962C117.284 84.9092 108.021 82.7802 100.558 77.4755C99.6324 76.8246 98.7434 76.1239 97.894 75.3768L84.1371 79.5627L89.4069 64.1569C86.7763 58.6504 85.6495 52.5459 86.1401 46.4631C86.6308 40.3804 88.7221 34.5355 92.2014 29.5221C95.6807 24.5086 100.424 20.5046 105.951 17.9166C111.478 15.3285 117.59 14.2485 123.669 14.786C129.748 15.3236 135.577 17.4598 140.563 20.9774C145.55 24.4952 149.517 29.2696 152.062 34.8159C154.608 40.3623 155.641 46.4833 155.057 52.5579C154.472 58.6323 152.291 64.4441 148.735 69.4036Z" fill="white" stroke="#BABABA" stroke-width="2" stroke-linecap="round" stroke-linejoin="round"/>
<path d="M110.774 56.039C111.797 54.3105 113.249 52.8756 114.989 51.8727C116.73 50.8699 118.699 50.3333 120.708 50.3147C122.716 50.2961 124.695 50.7963 126.454 51.7668C128.213 52.7373 129.691 54.1453 130.746 55.8545" stroke="#BABABA" stroke-width="2" stroke-linecap="round" stroke-linejoin="round"/>
<path d="M133.686 45.9024C134.584 45.9024 135.312 45.1745 135.312 44.2764C135.312 43.3784 134.584 42.6505 133.686 42.6505C132.789 42.6505 132.06 43.3784 132.06 44.2764C132.06 45.1745 132.789 45.9024 133.686 45.9024Z" fill="#BABABA"/>
<path d="M107.925 45.9024C108.823 45.9024 109.551 45.1745 109.551 44.2764C109.551 43.3784 108.823 42.6505 107.925 42.6505C107.028 42.6505 106.299 43.3784 106.299 44.2764C106.299 45.1745 107.028 45.9024 107.925 45.9024Z" fill="#BABABA"/>
<path d="M24.2764 157.689C23.5391 157.689 22.8741 157.561 22.2814 157.304C21.6934 157.048 21.2081 156.681 20.8254 156.205C20.4474 155.725 20.2071 155.155 20.1044 154.497L21.8544 154.231C22.0038 154.829 22.3094 155.291 22.7714 155.617C23.2381 155.944 23.7748 156.107 24.3814 156.107C24.7408 156.107 25.0791 156.051 25.3964 155.939C25.7138 155.827 25.9704 155.664 26.1664 155.449C26.3671 155.235 26.4674 154.971 26.4674 154.658C26.4674 154.518 26.4441 154.39 26.3974 154.273C26.3508 154.152 26.2808 154.045 26.1874 153.951C26.0988 153.858 25.9821 153.774 25.8374 153.699C25.6974 153.62 25.5341 153.552 25.3474 153.496L22.7434 152.726C22.5194 152.661 22.2768 152.575 22.0154 152.467C21.7588 152.355 21.5138 152.204 21.2804 152.012C21.0518 151.816 20.8628 151.569 20.7134 151.27C20.5688 150.967 20.4964 150.594 20.4964 150.15C20.4964 149.502 20.6598 148.958 20.9864 148.519C21.3178 148.076 21.7611 147.745 22.3164 147.525C22.8764 147.306 23.4971 147.199 24.1784 147.203C24.8691 147.208 25.4851 147.327 26.0264 147.56C26.5678 147.789 27.0204 148.123 27.3844 148.561C27.7484 149 28.0051 149.53 28.1544 150.15L26.3414 150.465C26.2668 150.111 26.1221 149.81 25.9074 149.562C25.6974 149.31 25.4384 149.119 25.1304 148.988C24.8271 148.858 24.5028 148.788 24.1574 148.778C23.8214 148.774 23.5088 148.825 23.2194 148.932C22.9348 149.035 22.7038 149.184 22.5264 149.38C22.3538 149.576 22.2674 149.805 22.2674 150.066C22.2674 150.314 22.3421 150.517 22.4914 150.675C22.6408 150.829 22.8251 150.953 23.0444 151.046C23.2684 151.135 23.4948 151.21 23.7234 151.27L25.5294 151.774C25.7768 151.84 26.0544 151.928 26.3624 152.04C26.6704 152.152 26.9668 152.309 27.2514 152.509C27.5361 152.71 27.7694 152.974 27.9514 153.3C28.1381 153.627 28.2314 154.042 28.2314 154.546C28.2314 155.069 28.1218 155.529 27.9024 155.925C27.6878 156.317 27.3961 156.644 27.0274 156.905C26.6588 157.167 26.2364 157.363 25.7604 157.493C25.2891 157.624 24.7944 157.689 24.2764 157.689ZM33.1836 157.689C32.4183 157.689 31.7463 157.524 31.1676 157.192C30.5889 156.861 30.1363 156.401 29.8096 155.813C29.4876 155.225 29.3266 154.549 29.3266 153.783C29.3266 152.957 29.4853 152.241 29.8026 151.634C30.1199 151.023 30.5609 150.549 31.1256 150.213C31.6903 149.877 32.3436 149.709 33.0856 149.709C33.8696 149.709 34.5346 149.894 35.0806 150.262C35.6313 150.626 36.0396 151.142 36.3056 151.809C36.5716 152.477 36.6719 153.263 36.6066 154.168H34.9336V153.552C34.9289 152.731 34.7843 152.131 34.4996 151.753C34.2149 151.375 33.7669 151.186 33.1556 151.186C32.4649 151.186 31.9516 151.401 31.6156 151.83C31.2796 152.255 31.1116 152.878 31.1116 153.699C31.1116 154.465 31.2796 155.057 31.6156 155.477C31.9516 155.897 32.4416 156.107 33.0856 156.107C33.5009 156.107 33.8579 156.016 34.1566 155.834C34.4599 155.648 34.6933 155.379 34.8566 155.029L36.5226 155.533C36.2333 156.215 35.7853 156.744 35.1786 157.122C34.5766 157.5 33.9116 157.689 33.1836 157.689ZM30.5796 154.168V152.894H35.7806V154.168H30.5796ZM38.3085 157.479V147.189H39.9955V157.479H38.3085ZM45.5293 157.689C44.764 157.689 44.092 157.524 43.5133 157.192C42.9346 156.861 42.482 156.401 42.1553 155.813C41.8333 155.225 41.6723 154.549 41.6723 153.783C41.6723 152.957 41.831 152.241 42.1483 151.634C42.4656 151.023 42.9066 150.549 43.4713 150.213C44.036 149.877 44.6893 149.709 45.4313 149.709C46.2153 149.709 46.8803 149.894 47.4263 150.262C47.977 150.626 48.3853 151.142 48.6513 151.809C48.9173 152.477 49.0176 153.263 48.9523 154.168H47.2793V153.552C47.2746 152.731 47.13 152.131 46.8453 151.753C46.5606 151.375 46.1126 151.186 45.5013 151.186C44.8106 151.186 44.2973 151.401 43.9613 151.83C43.6253 152.255 43.4573 152.878 43.4573 153.699C43.4573 154.465 43.6253 155.057 43.9613 155.477C44.2973 155.897 44.7873 156.107 45.4313 156.107C45.8466 156.107 46.2036 156.016 46.5023 155.834C46.8056 155.648 47.039 155.379 47.2023 155.029L48.8683 155.533C48.579 156.215 48.131 156.744 47.5243 157.122C46.9223 157.5 46.2573 157.689 45.5293 157.689ZM42.9253 154.168V152.894H48.1263V154.168H42.9253ZM53.7972 157.689C53.0178 157.689 52.3528 157.517 51.8022 157.171C51.2515 156.821 50.8292 156.345 50.5352 155.743C50.2458 155.141 50.0988 154.46 50.0942 153.699C50.0988 152.925 50.2505 152.239 50.5492 151.641C50.8525 151.039 51.2818 150.568 51.8372 150.227C52.3925 149.882 53.0528 149.709 53.8182 149.709C54.6768 149.709 55.4025 149.926 55.9952 150.36C56.5925 150.79 56.9822 151.378 57.1642 152.124L55.4842 152.579C55.3535 152.173 55.1365 151.858 54.8332 151.634C54.5298 151.406 54.1845 151.291 53.7972 151.291C53.3585 151.291 52.9968 151.396 52.7122 151.606C52.4275 151.812 52.2175 152.096 52.0822 152.46C51.9468 152.824 51.8792 153.237 51.8792 153.699C51.8792 154.418 52.0402 154.999 52.3622 155.442C52.6842 155.886 53.1625 156.107 53.7972 156.107C54.2452 156.107 54.5975 156.005 54.8542 155.799C55.1155 155.594 55.3115 155.298 55.4422 154.91L57.1642 155.295C56.9308 156.065 56.5225 156.658 55.9392 157.073C55.3558 157.484 54.6418 157.689 53.7972 157.689ZM62.9979 157.479C62.4986 157.573 62.0086 157.612 61.5279 157.598C61.0519 157.589 60.6249 157.503 60.2469 157.339C59.8689 157.171 59.5819 156.908 59.3859 156.548C59.2132 156.222 59.1222 155.888 59.1129 155.547C59.1036 155.207 59.0989 154.822 59.0989 154.392V147.819H60.7789V154.294C60.7789 154.598 60.7812 154.864 60.7859 155.092C60.7952 155.321 60.8442 155.508 60.9329 155.652C61.1009 155.932 61.3692 156.089 61.7379 156.121C62.1066 156.154 62.5266 156.135 62.9979 156.065V157.479ZM57.7269 151.242V149.919H62.9979V151.242H57.7269ZM69.5403 157.689C68.9943 157.689 68.5323 157.587 68.1543 157.381C67.7763 157.171 67.4893 156.894 67.2933 156.548C67.102 156.203 67.0063 155.823 67.0063 155.407C67.0063 155.043 67.067 154.717 67.1883 154.427C67.3096 154.133 67.4963 153.881 67.7483 153.671C68.0003 153.457 68.327 153.282 68.7283 153.146C69.0316 153.048 69.3863 152.96 69.7923 152.88C70.203 152.801 70.6463 152.729 71.1223 152.663C71.603 152.593 72.1046 152.519 72.6273 152.439L72.0253 152.782C72.03 152.26 71.9133 151.875 71.6753 151.627C71.4373 151.38 71.036 151.256 70.4713 151.256C70.1306 151.256 69.8016 151.336 69.4843 151.494C69.167 151.653 68.9453 151.926 68.8193 152.313L67.2793 151.83C67.466 151.191 67.8206 150.678 68.3433 150.29C68.8706 149.903 69.58 149.709 70.4713 149.709C71.1433 149.709 71.7336 149.819 72.2423 150.038C72.7556 150.258 73.136 150.617 73.3833 151.116C73.5186 151.382 73.6003 151.655 73.6283 151.935C73.6563 152.211 73.6703 152.512 73.6703 152.838V157.479H72.1933V155.841L72.4383 156.107C72.0976 156.653 71.6986 157.055 71.2413 157.311C70.7886 157.563 70.2216 157.689 69.5403 157.689ZM69.8763 156.345C70.259 156.345 70.5856 156.278 70.8563 156.142C71.127 156.007 71.3416 155.841 71.5003 155.645C71.6636 155.449 71.7733 155.265 71.8293 155.092C71.918 154.878 71.967 154.633 71.9763 154.357C71.9903 154.077 71.9973 153.851 71.9973 153.678L72.5153 153.832C72.0066 153.912 71.5703 153.982 71.2063 154.042C70.8423 154.103 70.5296 154.161 70.2683 154.217C70.007 154.269 69.776 154.327 69.5753 154.392C69.3793 154.462 69.2136 154.544 69.0783 154.637C68.943 154.731 68.838 154.838 68.7633 154.959C68.6933 155.081 68.6583 155.223 68.6583 155.386C68.6583 155.573 68.705 155.739 68.7983 155.883C68.8916 156.023 69.027 156.135 69.2043 156.219C69.3863 156.303 69.6103 156.345 69.8763 156.345ZM82.5584 157.689C81.5504 157.689 80.6871 157.47 79.9684 157.031C79.2498 156.588 78.6968 155.972 78.3094 155.183C77.9268 154.395 77.7354 153.48 77.7354 152.439C77.7354 151.399 77.9268 150.484 78.3094 149.695C78.6968 148.907 79.2498 148.293 79.9684 147.854C80.6871 147.411 81.5504 147.189 82.5584 147.189C83.7204 147.189 84.6888 147.481 85.4634 148.064C86.2381 148.643 86.7818 149.425 87.0944 150.409L85.3934 150.878C85.1974 150.22 84.8638 149.707 84.3924 149.338C83.9211 148.965 83.3098 148.778 82.5584 148.778C81.8818 148.778 81.3171 148.93 80.8644 149.233C80.4164 149.537 80.0781 149.964 79.8494 150.514C79.6254 151.06 79.5111 151.702 79.5064 152.439C79.5064 153.177 79.6184 153.821 79.8424 154.371C80.0711 154.917 80.4118 155.342 80.8644 155.645C81.3171 155.949 81.8818 156.1 82.5584 156.1C83.3098 156.1 83.9211 155.914 84.3924 155.54C84.8638 155.167 85.1974 154.654 85.3934 154L87.0944 154.469C86.7818 155.454 86.2381 156.238 85.4634 156.821C84.6888 157.4 83.7204 157.689 82.5584 157.689ZM91.9704 157.689C91.2144 157.689 90.554 157.519 89.9894 157.178C89.4247 156.838 88.986 156.369 88.6734 155.771C88.3654 155.169 88.2114 154.479 88.2114 153.699C88.2114 152.906 88.37 152.211 88.6874 151.613C89.0047 151.016 89.4457 150.549 90.0104 150.213C90.575 149.877 91.2284 149.709 91.9704 149.709C92.731 149.709 93.3937 149.88 93.9584 150.22C94.523 150.561 94.9617 151.032 95.2744 151.634C95.587 152.232 95.7434 152.92 95.7434 153.699C95.7434 154.483 95.5847 155.176 95.2674 155.778C94.9547 156.376 94.516 156.845 93.9514 157.185C93.3867 157.521 92.7264 157.689 91.9704 157.689ZM91.9704 156.107C92.6424 156.107 93.1417 155.883 93.4684 155.435C93.795 154.987 93.9584 154.409 93.9584 153.699C93.9584 152.967 93.7927 152.383 93.4614 151.949C93.13 151.511 92.633 151.291 91.9704 151.291C91.5177 151.291 91.1444 151.394 90.8504 151.599C90.561 151.8 90.3464 152.082 90.2064 152.446C90.0664 152.806 89.9964 153.223 89.9964 153.699C89.9964 154.432 90.162 155.018 90.4934 155.456C90.8294 155.89 91.3217 156.107 91.9704 156.107ZM102.515 157.479V153.839C102.515 153.601 102.498 153.338 102.466 153.048C102.433 152.759 102.356 152.481 102.235 152.215C102.118 151.945 101.941 151.723 101.703 151.55C101.469 151.378 101.152 151.291 100.751 151.291C100.536 151.291 100.324 151.326 100.114 151.396C99.9037 151.466 99.7123 151.588 99.5397 151.76C99.3717 151.928 99.2363 152.162 99.1337 152.46C99.031 152.754 98.9797 153.132 98.9797 153.594L97.9787 153.167C97.9787 152.523 98.1023 151.94 98.3497 151.417C98.6017 150.895 98.9703 150.479 99.4557 150.171C99.941 149.859 100.538 149.702 101.248 149.702C101.808 149.702 102.27 149.796 102.634 149.982C102.998 150.169 103.287 150.407 103.502 150.696C103.716 150.986 103.875 151.294 103.978 151.62C104.08 151.947 104.146 152.257 104.174 152.551C104.206 152.841 104.223 153.076 104.223 153.258V157.479H102.515ZM97.2717 157.479V149.919H98.7767V152.264H98.9797V157.479H97.2717ZM108.093 157.479L105.349 149.919H107.036L108.94 155.4L110.837 149.919H112.531L109.787 157.479H108.093ZM116.951 157.689C116.186 157.689 115.514 157.524 114.935 157.192C114.357 156.861 113.904 156.401 113.577 155.813C113.255 155.225 113.094 154.549 113.094 153.783C113.094 152.957 113.253 152.241 113.57 151.634C113.888 151.023 114.329 150.549 114.893 150.213C115.458 149.877 116.111 149.709 116.853 149.709C117.637 149.709 118.302 149.894 118.848 150.262C119.399 150.626 119.807 151.142 120.073 151.809C120.339 152.477 120.44 153.263 120.374 154.168H118.701V153.552C118.697 152.731 118.552 152.131 118.267 151.753C117.983 151.375 117.535 151.186 116.923 151.186C116.233 151.186 115.719 151.401 115.383 151.83C115.047 152.255 114.879 152.878 114.879 153.699C114.879 154.465 115.047 155.057 115.383 155.477C115.719 155.897 116.209 156.107 116.853 156.107C117.269 156.107 117.626 156.016 117.924 155.834C118.228 155.648 118.461 155.379 118.624 155.029L120.29 155.533C120.001 156.215 119.553 156.744 118.946 157.122C118.344 157.5 117.679 157.689 116.951 157.689ZM114.347 154.168V152.894H119.548V154.168H114.347ZM121.936 157.479V149.919H123.427V151.76L123.245 151.522C123.338 151.27 123.462 151.042 123.616 150.836C123.775 150.626 123.964 150.454 124.183 150.318C124.37 150.192 124.575 150.094 124.799 150.024C125.028 149.95 125.261 149.905 125.499 149.891C125.737 149.873 125.968 149.882 126.192 149.919V151.494C125.968 151.429 125.709 151.408 125.415 151.431C125.126 151.455 124.864 151.536 124.631 151.676C124.398 151.802 124.206 151.963 124.057 152.159C123.912 152.355 123.805 152.579 123.735 152.831C123.665 153.079 123.63 153.347 123.63 153.636V157.479H121.936ZM130.173 157.689C129.24 157.689 128.482 157.479 127.898 157.059C127.315 156.639 126.96 156.049 126.834 155.288L128.556 155.022C128.645 155.396 128.841 155.69 129.144 155.904C129.448 156.119 129.83 156.226 130.292 156.226C130.698 156.226 131.011 156.147 131.23 155.988C131.454 155.825 131.566 155.603 131.566 155.323C131.566 155.151 131.524 155.013 131.44 154.91C131.361 154.803 131.184 154.7 130.908 154.602C130.633 154.504 130.211 154.381 129.641 154.231C129.007 154.063 128.503 153.884 128.129 153.692C127.756 153.496 127.488 153.265 127.324 152.999C127.161 152.733 127.079 152.411 127.079 152.033C127.079 151.562 127.203 151.151 127.45 150.801C127.698 150.451 128.043 150.183 128.486 149.996C128.93 149.805 129.452 149.709 130.054 149.709C130.642 149.709 131.163 149.8 131.615 149.982C132.073 150.164 132.441 150.423 132.721 150.759C133.001 151.095 133.174 151.49 133.239 151.942L131.517 152.25C131.475 151.928 131.328 151.674 131.076 151.487C130.829 151.301 130.498 151.196 130.082 151.172C129.686 151.149 129.366 151.21 129.123 151.354C128.881 151.494 128.759 151.693 128.759 151.949C128.759 152.094 128.808 152.218 128.906 152.32C129.004 152.423 129.2 152.526 129.494 152.628C129.793 152.731 130.236 152.857 130.824 153.006C131.426 153.16 131.907 153.338 132.266 153.538C132.63 153.734 132.892 153.97 133.05 154.245C133.214 154.521 133.295 154.854 133.295 155.246C133.295 156.007 133.018 156.604 132.462 157.038C131.912 157.472 131.149 157.689 130.173 157.689ZM136.943 157.689C136.397 157.689 135.935 157.587 135.557 157.381C135.179 157.171 134.892 156.894 134.696 156.548C134.504 156.203 134.409 155.823 134.409 155.407C134.409 155.043 134.469 154.717 134.591 154.427C134.712 154.133 134.899 153.881 135.151 153.671C135.403 153.457 135.729 153.282 136.131 153.146C136.434 153.048 136.789 152.96 137.195 152.88C137.605 152.801 138.049 152.729 138.525 152.663C139.005 152.593 139.507 152.519 140.03 152.439L139.428 152.782C139.432 152.26 139.316 151.875 139.078 151.627C138.84 151.38 138.438 151.256 137.874 151.256C137.533 151.256 137.204 151.336 136.887 151.494C136.569 151.653 136.348 151.926 136.222 152.313L134.682 151.83C134.868 151.191 135.223 150.678 135.746 150.29C136.273 149.903 136.982 149.709 137.874 149.709C138.546 149.709 139.136 149.819 139.645 150.038C140.158 150.258 140.538 150.617 140.786 151.116C140.921 151.382 141.003 151.655 141.031 151.935C141.059 152.211 141.073 152.512 141.073 152.838V157.479H139.596V155.841L139.841 156.107C139.5 156.653 139.101 157.055 138.644 157.311C138.191 157.563 137.624 157.689 136.943 157.689ZM137.279 156.345C137.661 156.345 137.988 156.278 138.259 156.142C138.529 156.007 138.744 155.841 138.903 155.645C139.066 155.449 139.176 155.265 139.232 155.092C139.32 154.878 139.369 154.633 139.379 154.357C139.393 154.077 139.4 153.851 139.4 153.678L139.918 153.832C139.409 153.912 138.973 153.982 138.609 154.042C138.245 154.103 137.932 154.161 137.671 154.217C137.409 154.269 137.178 154.327 136.978 154.392C136.782 154.462 136.616 154.544 136.481 154.637C136.345 154.731 136.24 154.838 136.166 154.959C136.096 155.081 136.061 155.223 136.061 155.386C136.061 155.573 136.107 155.739 136.201 155.883C136.294 156.023 136.429 156.135 136.607 156.219C136.789 156.303 137.013 156.345 137.279 156.345ZM147.326 157.479C146.827 157.573 146.337 157.612 145.856 157.598C145.38 157.589 144.953 157.503 144.575 157.339C144.197 157.171 143.91 156.908 143.714 156.548C143.541 156.222 143.45 155.888 143.441 155.547C143.432 155.207 143.427 154.822 143.427 154.392V147.819H145.107V154.294C145.107 154.598 145.109 154.864 145.114 155.092C145.123 155.321 145.172 155.508 145.261 155.652C145.429 155.932 145.697 156.089 146.066 156.121C146.435 156.154 146.855 156.135 147.326 156.065V157.479ZM142.055 151.242V149.919H147.326V151.242H142.055ZM149.092 148.771V147.224H150.779V148.771H149.092ZM149.092 157.479V149.919H150.779V157.479H149.092ZM156.215 157.689C155.459 157.689 154.798 157.519 154.234 157.178C153.669 156.838 153.23 156.369 152.918 155.771C152.61 155.169 152.456 154.479 152.456 153.699C152.456 152.906 152.614 152.211 152.932 151.613C153.249 151.016 153.69 150.549 154.255 150.213C154.819 149.877 155.473 149.709 156.215 149.709C156.975 149.709 157.638 149.88 158.203 150.22C158.767 150.561 159.206 151.032 159.519 151.634C159.831 152.232 159.988 152.92 159.988 153.699C159.988 154.483 159.829 155.176 159.512 155.778C159.199 156.376 158.76 156.845 158.196 157.185C157.631 157.521 156.971 157.689 156.215 157.689ZM156.215 156.107C156.887 156.107 157.386 155.883 157.713 155.435C158.039 154.987 158.203 154.409 158.203 153.699C158.203 152.967 158.037 152.383 157.706 151.949C157.374 151.511 156.877 151.291 156.215 151.291C155.762 151.291 155.389 151.394 155.095 151.599C154.805 151.8 154.591 152.082 154.451 152.446C154.311 152.806 154.241 153.223 154.241 153.699C154.241 154.432 154.406 155.018 154.738 155.456C155.074 155.89 155.566 156.107 156.215 156.107ZM166.759 157.479V153.839C166.759 153.601 166.742 153.338 166.71 153.048C166.677 152.759 166.6 152.481 166.479 152.215C166.362 151.945 166.185 151.723 165.947 151.55C165.713 151.378 165.396 151.291 164.995 151.291C164.78 151.291 164.568 151.326 164.358 151.396C164.148 151.466 163.956 151.588 163.784 151.76C163.616 151.928 163.48 152.162 163.378 152.46C163.275 152.754 163.224 153.132 163.224 153.594L162.223 153.167C162.223 152.523 162.346 151.94 162.594 151.417C162.846 150.895 163.214 150.479 163.7 150.171C164.185 149.859 164.782 149.702 165.492 149.702C166.052 149.702 166.514 149.796 166.878 149.982C167.242 150.169 167.531 150.407 167.746 150.696C167.96 150.986 168.119 151.294 168.222 151.62C168.324 151.947 168.39 152.257 168.418 152.551C168.45 152.841 168.467 153.076 168.467 153.258V157.479H166.759ZM161.516 157.479V149.919H163.021V152.264H163.224V157.479H161.516ZM177.527 157.479C177.028 157.573 176.538 157.612 176.057 157.598C175.581 157.589 175.154 157.503 174.776 157.339C174.398 157.171 174.111 156.908 173.915 156.548C173.743 156.222 173.652 155.888 173.642 155.547C173.633 155.207 173.628 154.822 173.628 154.392V147.819H175.308V154.294C175.308 154.598 175.311 154.864 175.315 155.092C175.325 155.321 175.374 155.508 175.462 155.652C175.63 155.932 175.899 156.089 176.267 156.121C176.636 156.154 177.056 156.135 177.527 156.065V157.479ZM172.256 151.242V149.919H177.527V151.242H172.256ZM182.109 157.689C181.353 157.689 180.693 157.519 180.128 157.178C179.563 156.838 179.125 156.369 178.812 155.771C178.504 155.169 178.35 154.479 178.35 153.699C178.35 152.906 178.509 152.211 178.826 151.613C179.143 151.016 179.584 150.549 180.149 150.213C180.714 149.877 181.367 149.709 182.109 149.709C182.87 149.709 183.532 149.88 184.097 150.22C184.662 150.561 185.1 151.032 185.413 151.634C185.726 152.232 185.882 152.92 185.882 153.699C185.882 154.483 185.723 155.176 185.406 155.778C185.093 156.376 184.655 156.845 184.09 157.185C183.525 157.521 182.865 157.689 182.109 157.689ZM182.109 156.107C182.781 156.107 183.28 155.883 183.607 155.435C183.934 154.987 184.097 154.409 184.097 153.699C184.097 152.967 183.931 152.383 183.6 151.949C183.269 151.511 182.772 151.291 182.109 151.291C181.656 151.291 181.283 151.394 180.989 151.599C180.7 151.8 180.485 152.082 180.345 152.446C180.205 152.806 180.135 153.223 180.135 153.699C180.135 154.432 180.301 155.018 180.632 155.456C180.968 155.89 181.46 156.107 182.109 156.107ZM194.385 157.689C193.732 157.689 193.118 157.575 192.544 157.346C191.975 157.113 191.473 156.772 191.039 156.324C190.61 155.876 190.274 155.328 190.031 154.679C189.788 154.026 189.667 153.279 189.667 152.439C189.667 151.338 189.872 150.398 190.283 149.618C190.694 148.834 191.256 148.235 191.97 147.819C192.684 147.399 193.489 147.189 194.385 147.189C195.626 147.189 196.609 147.479 197.332 148.057C198.06 148.631 198.552 149.439 198.809 150.479L197.087 150.752C196.896 150.155 196.583 149.679 196.149 149.324C195.715 148.965 195.162 148.785 194.49 148.785C193.813 148.776 193.251 148.923 192.803 149.226C192.355 149.53 192.017 149.957 191.788 150.507C191.564 151.058 191.452 151.702 191.452 152.439C191.452 153.177 191.564 153.818 191.788 154.364C192.012 154.906 192.348 155.328 192.796 155.631C193.249 155.935 193.813 156.091 194.49 156.1C194.999 156.105 195.444 156.014 195.827 155.827C196.21 155.636 196.522 155.349 196.765 154.966C197.008 154.579 197.171 154.096 197.255 153.517H195.477V152.194H199.047C199.056 152.269 199.063 152.379 199.068 152.523C199.073 152.668 199.075 152.754 199.075 152.782C199.075 153.734 198.886 154.581 198.508 155.323C198.135 156.061 197.598 156.639 196.898 157.059C196.198 157.479 195.36 157.689 194.385 157.689ZM203.918 157.689C203.153 157.689 202.481 157.524 201.902 157.192C201.323 156.861 200.871 156.401 200.544 155.813C200.222 155.225 200.061 154.549 200.061 153.783C200.061 152.957 200.22 152.241 200.537 151.634C200.854 151.023 201.295 150.549 201.86 150.213C202.425 149.877 203.078 149.709 203.82 149.709C204.604 149.709 205.269 149.894 205.815 150.262C206.366 150.626 206.774 151.142 207.04 151.809C207.306 152.477 207.406 153.263 207.341 154.168H205.668V153.552C205.663 152.731 205.519 152.131 205.234 151.753C204.949 151.375 204.501 151.186 203.89 151.186C203.199 151.186 202.686 151.401 202.35 151.83C202.014 152.255 201.846 152.878 201.846 153.699C201.846 154.465 202.014 155.057 202.35 155.477C202.686 155.897 203.176 156.107 203.82 156.107C204.235 156.107 204.592 156.016 204.891 155.834C205.194 155.648 205.428 155.379 205.591 155.029L207.257 155.533C206.968 156.215 206.52 156.744 205.913 157.122C205.311 157.5 204.646 157.689 203.918 157.689ZM201.314 154.168V152.894H206.515V154.168H201.314ZM213.334 157.479C212.835 157.573 212.345 157.612 211.864 157.598C211.388 157.589 210.961 157.503 210.583 157.339C210.205 157.171 209.918 156.908 209.722 156.548C209.549 156.222 209.458 155.888 209.449 155.547C209.44 155.207 209.435 154.822 209.435 154.392V147.819H211.115V154.294C211.115 154.598 211.117 154.864 211.122 155.092C211.131 155.321 211.18 155.508 211.269 155.652C211.437 155.932 211.705 156.089 212.074 156.121C212.443 156.154 212.863 156.135 213.334 156.065V157.479ZM208.063 151.242V149.919H213.334V151.242H208.063ZM221.493 157.689C220.756 157.689 220.091 157.561 219.498 157.304C218.91 157.048 218.425 156.681 218.042 156.205C217.664 155.725 217.424 155.155 217.321 154.497L219.071 154.231C219.221 154.829 219.526 155.291 219.988 155.617C220.455 155.944 220.992 156.107 221.598 156.107C221.958 156.107 222.296 156.051 222.613 155.939C222.931 155.827 223.187 155.664 223.383 155.449C223.584 155.235 223.684 154.971 223.684 154.658C223.684 154.518 223.661 154.39 223.614 154.273C223.568 154.152 223.498 154.045 223.404 153.951C223.316 153.858 223.199 153.774 223.054 153.699C222.914 153.62 222.751 153.552 222.564 153.496L219.96 152.726C219.736 152.661 219.494 152.575 219.232 152.467C218.976 152.355 218.731 152.204 218.497 152.012C218.269 151.816 218.08 151.569 217.93 151.27C217.786 150.967 217.713 150.594 217.713 150.15C217.713 149.502 217.877 148.958 218.203 148.519C218.535 148.076 218.978 147.745 219.533 147.525C220.093 147.306 220.714 147.199 221.395 147.203C222.086 147.208 222.702 147.327 223.243 147.56C223.785 147.789 224.237 148.123 224.601 148.561C224.965 149 225.222 149.53 225.371 150.15L223.558 150.465C223.484 150.111 223.339 149.81 223.124 149.562C222.914 149.31 222.655 149.119 222.347 148.988C222.044 148.858 221.72 148.788 221.374 148.778C221.038 148.774 220.726 148.825 220.436 148.932C220.152 149.035 219.921 149.184 219.743 149.38C219.571 149.576 219.484 149.805 219.484 150.066C219.484 150.314 219.559 150.517 219.708 150.675C219.858 150.829 220.042 150.953 220.261 151.046C220.485 151.135 220.712 151.21 220.94 151.27L222.746 151.774C222.994 151.84 223.271 151.928 223.579 152.04C223.887 152.152 224.184 152.309 224.468 152.509C224.753 152.71 224.986 152.974 225.168 153.3C225.355 153.627 225.448 154.042 225.448 154.546C225.448 155.069 225.339 155.529 225.119 155.925C224.905 156.317 224.613 156.644 224.244 156.905C223.876 157.167 223.453 157.363 222.977 157.493C222.506 157.624 222.011 157.689 221.493 157.689ZM231.394 157.479C230.895 157.573 230.405 157.612 229.924 157.598C229.448 157.589 229.021 157.503 228.643 157.339C228.265 157.171 227.978 156.908 227.782 156.548C227.61 156.222 227.519 155.888 227.509 155.547C227.5 155.207 227.495 154.822 227.495 154.392V147.819H229.175V154.294C229.175 154.598 229.178 154.864 229.182 155.092C229.192 155.321 229.241 155.508 229.329 155.652C229.497 155.932 229.766 156.089 230.134 156.121C230.503 156.154 230.923 156.135 231.394 156.065V157.479ZM226.123 151.242V149.919H231.394V151.242H226.123ZM235.134 157.689C234.588 157.689 234.126 157.587 233.748 157.381C233.37 157.171 233.083 156.894 232.887 156.548C232.696 156.203 232.6 155.823 232.6 155.407C232.6 155.043 232.661 154.717 232.782 154.427C232.903 154.133 233.09 153.881 233.342 153.671C233.594 153.457 233.921 153.282 234.322 153.146C234.625 153.048 234.98 152.96 235.386 152.88C235.797 152.801 236.24 152.729 236.716 152.663C237.197 152.593 237.698 152.519 238.221 152.439L237.619 152.782C237.624 152.26 237.507 151.875 237.269 151.627C237.031 151.38 236.63 151.256 236.065 151.256C235.724 151.256 235.395 151.336 235.078 151.494C234.761 151.653 234.539 151.926 234.413 152.313L232.873 151.83C233.06 151.191 233.414 150.678 233.937 150.29C234.464 149.903 235.174 149.709 236.065 149.709C236.737 149.709 237.327 149.819 237.836 150.038C238.349 150.258 238.73 150.617 238.977 151.116C239.112 151.382 239.194 151.655 239.222 151.935C239.25 152.211 239.264 152.512 239.264 152.838V157.479H237.787V155.841L238.032 156.107C237.691 156.653 237.292 157.055 236.835 157.311C236.382 157.563 235.815 157.689 235.134 157.689ZM235.47 156.345C235.853 156.345 236.179 156.278 236.45 156.142C236.721 156.007 236.935 155.841 237.094 155.645C237.257 155.449 237.367 155.265 237.423 155.092C237.512 154.878 237.561 154.633 237.57 154.357C237.584 154.077 237.591 153.851 237.591 153.678L238.109 153.832C237.6 153.912 237.164 153.982 236.8 154.042C236.436 154.103 236.123 154.161 235.862 154.217C235.601 154.269 235.37 154.327 235.169 154.392C234.973 154.462 234.807 154.544 234.672 154.637C234.537 154.731 234.432 154.838 234.357 154.959C234.287 155.081 234.252 155.223 234.252 155.386C234.252 155.573 234.299 155.739 234.392 155.883C234.485 156.023 234.621 156.135 234.798 156.219C234.98 156.303 235.204 156.345 235.47 156.345ZM241.086 157.479V149.919H242.577V151.76L242.395 151.522C242.489 151.27 242.612 151.042 242.766 150.836C242.925 150.626 243.114 150.454 243.333 150.318C243.52 150.192 243.725 150.094 243.949 150.024C244.178 149.95 244.411 149.905 244.649 149.891C244.887 149.873 245.118 149.882 245.342 149.919V151.494C245.118 151.429 244.859 151.408 244.565 151.431C244.276 151.455 244.015 151.536 243.781 151.676C243.548 151.802 243.357 151.963 243.207 152.159C243.063 152.355 242.955 152.579 242.885 152.831C242.815 153.079 242.78 153.347 242.78 153.636V157.479H241.086ZM251.109 157.479C250.61 157.573 250.12 157.612 249.639 157.598C249.163 157.589 248.736 157.503 248.358 157.339C247.98 157.171 247.693 156.908 247.497 156.548C247.325 156.222 247.234 155.888 247.224 155.547C247.215 155.207 247.21 154.822 247.21 154.392V147.819H248.89V154.294C248.89 154.598 248.893 154.864 248.897 155.092C248.907 155.321 248.956 155.508 249.044 155.652C249.212 155.932 249.481 156.089 249.849 156.121C250.218 156.154 250.638 156.135 251.109 156.065V157.479ZM245.838 151.242V149.919H251.109V151.242H245.838ZM255.789 157.689C255.024 157.689 254.352 157.524 253.773 157.192C253.194 156.861 252.742 156.401 252.415 155.813C252.093 155.225 251.932 154.549 251.932 153.783C251.932 152.957 252.091 152.241 252.408 151.634C252.725 151.023 253.166 150.549 253.731 150.213C254.296 149.877 254.949 149.709 255.691 149.709C256.475 149.709 257.14 149.894 257.686 150.262C258.237 150.626 258.645 151.142 258.911 151.809C259.177 152.477 259.277 153.263 259.212 154.168H257.539V153.552C257.534 152.731 257.39 152.131 257.105 151.753C256.82 151.375 256.372 151.186 255.761 151.186C255.07 151.186 254.557 151.401 254.221 151.83C253.885 152.255 253.717 152.878 253.717 153.699C253.717 154.465 253.885 155.057 254.221 155.477C254.557 155.897 255.047 156.107 255.691 156.107C256.106 156.107 256.463 156.016 256.762 155.834C257.065 155.648 257.299 155.379 257.462 155.029L259.128 155.533C258.839 156.215 258.391 156.744 257.784 157.122C257.182 157.5 256.517 157.689 255.789 157.689ZM253.185 154.168V152.894H258.386V154.168H253.185ZM263.805 157.689C263.11 157.689 262.503 157.514 261.985 157.164C261.467 156.814 261.066 156.338 260.781 155.736C260.496 155.134 260.354 154.455 260.354 153.699C260.354 152.934 260.496 152.253 260.781 151.655C261.07 151.053 261.479 150.58 262.006 150.234C262.533 149.884 263.154 149.709 263.868 149.709C264.587 149.709 265.189 149.884 265.674 150.234C266.164 150.58 266.535 151.053 266.787 151.655C267.039 152.257 267.165 152.939 267.165 153.699C267.165 154.451 267.039 155.13 266.787 155.736C266.535 156.338 266.159 156.814 265.66 157.164C265.161 157.514 264.542 157.689 263.805 157.689ZM264.064 156.177C264.517 156.177 264.881 156.075 265.156 155.869C265.436 155.659 265.639 155.368 265.765 154.994C265.896 154.621 265.961 154.189 265.961 153.699C265.961 153.205 265.896 152.773 265.765 152.404C265.639 152.031 265.441 151.742 265.17 151.536C264.899 151.326 264.549 151.221 264.12 151.221C263.667 151.221 263.294 151.333 263 151.557C262.706 151.777 262.489 152.075 262.349 152.453C262.209 152.827 262.139 153.242 262.139 153.699C262.139 154.161 262.207 154.581 262.342 154.959C262.482 155.333 262.694 155.629 262.979 155.848C263.264 156.068 263.625 156.177 264.064 156.177ZM265.961 157.479V152.173H265.751V147.399H267.452V157.479H265.961Z" fill="#525252"/>
</svg>
