<svg width="142" height="46" viewBox="0 0 142 46" fill="none" xmlns="http://www.w3.org/2000/svg">
<path d="M29.542 3V8.65234L34.4043 11.5088V17.1611L39.1465 19.9482L38.9004 20.3672L34.2119 17.6133L29.542 20.3564V25.6709L34.2842 28.457L34.2568 28.502L34.2842 28.5186L34.0381 28.9375L29.2979 26.1523L24.6787 28.8662V34.2412L29.4219 37.0273L29.1758 37.4473L24.3154 34.5918L19.8164 37.2354V43.0293L14.834 45.9561L14.5879 45.5371L19.3301 42.751V37.3154L14.7627 34.6318L9.97168 37.4473L9.72559 37.0273L9.75195 37.0117L9.72559 36.9668L14.4678 34.1807V28.8662L9.84766 26.1533L5.1084 28.9375L4.8623 28.5186L4.88867 28.502L4.8623 28.457L9.60547 25.6709V20.2969L4.98535 17.583L0.246094 20.3672L0 19.9482L4.86328 17.0898V11.5791L9.84766 8.65137L14.5898 11.4365L19.3301 8.65234V3L24.4355 0L29.542 3ZM10.0918 20.2969V25.6709L14.7627 28.415L19.3301 25.7324V20.3564L14.6592 17.6133L10.0918 20.2969ZM19.8164 20.3564V25.7324L24.3828 28.415L29.0557 25.6709V20.3564L24.4346 17.6436L19.8164 20.3564ZM14.9541 11.7871V17.1611L19.5732 19.875L24.1924 17.1611V11.8477L19.5205 9.10352L14.9541 11.7871ZM24.6787 11.8477V17.1611L29.2979 19.875L33.918 17.1611V11.7871L29.3506 9.10352L24.6787 11.8477ZM19.8164 3.27832V8.65234L24.4355 11.3652L29.0557 8.65234V3.27832L24.4355 0.563477L19.8164 3.27832Z" fill="white"/>
<path d="M59.7508 27.2106L62.8214 15.952H64.8483L60.7944 30.1808H58.7674L55.0547 18.6412L51.3821 30.1808H49.4153L45.3012 15.952H47.3281L50.4589 27.0902L54.0312 15.952H56.0983L59.7508 27.2106ZM72.3066 29.0168C71.7848 30.0203 70.5807 30.4819 69.4568 30.4819C67.2091 30.4819 65.8444 28.7961 65.8444 26.6086V20.5277H67.7309V26.3276C67.7309 27.6521 68.333 28.8161 69.9184 28.8161C71.4436 28.8161 72.2063 27.8127 72.2063 26.3477V20.5277H74.0927V28.3947C74.0927 29.1573 74.1529 29.8397 74.1931 30.1808H72.3869C72.3467 29.9601 72.3066 29.4182 72.3066 29.0168ZM82.4696 20.4273V22.4342C82.1887 22.3941 81.9077 22.374 81.6468 22.374C80.0614 22.374 78.9977 23.2169 78.9977 25.3442V30.1808H77.1112V20.5277H78.9576V22.2135C79.66 20.7284 80.8641 20.3671 81.8475 20.3671C82.1084 20.3671 82.3693 20.4073 82.4696 20.4273ZM92.9293 20.5277L88.8152 24.6017L93.0096 30.1808H90.6415L87.4906 25.9262L86.146 27.2708V30.1808H84.2796V15.6509H86.146V24.8024L90.3204 20.5277H92.9293ZM99.4796 22.2335H97.1516V30.1808H95.2049V22.2335H93.4188V20.5277H95.2049V18.9021C95.2049 16.7547 96.6298 15.5907 98.3758 15.5907C99.018 15.5907 99.4194 15.7312 99.4997 15.7914V17.4772C99.3994 17.4371 99.1585 17.3568 98.6769 17.3568C98.0146 17.3568 97.1516 17.6779 97.1516 19.0024V20.5277H99.4796V22.2335ZM105.044 28.7961C106.649 28.7961 108.054 27.5919 108.054 25.3442C108.054 23.1166 106.649 21.9124 105.044 21.9124C103.438 21.9124 102.033 23.1166 102.033 25.3442C102.033 27.5919 103.438 28.7961 105.044 28.7961ZM105.044 20.2266C107.934 20.2266 109.981 22.4142 109.981 25.3442C109.981 28.2944 107.934 30.4819 105.044 30.4819C102.154 30.4819 100.107 28.2944 100.107 25.3442C100.107 22.4142 102.154 20.2266 105.044 20.2266ZM117.552 20.4273V22.4342C117.271 22.3941 116.99 22.374 116.729 22.374C115.144 22.374 114.08 23.2169 114.08 25.3442V30.1808H112.193V20.5277H114.04V22.2135C114.742 20.7284 115.946 20.3671 116.93 20.3671C117.191 20.3671 117.452 20.4073 117.552 20.4273ZM123.318 21.9726C121.793 21.9726 120.388 23.0965 120.388 25.3442C120.388 27.5518 121.772 28.7359 123.338 28.7359C125.144 28.7359 125.806 27.5117 126.027 26.749L127.693 27.4715C127.231 28.8563 125.846 30.4819 123.338 30.4819C120.528 30.4819 118.461 28.2743 118.461 25.3442C118.461 22.3339 120.568 20.2266 123.318 20.2266C125.887 20.2266 127.211 21.8322 127.613 23.2972L125.907 24.0197C125.666 23.0764 124.963 21.9726 123.318 21.9726ZM130.831 24.3608H136.11C136.069 22.9761 135.166 21.8924 133.46 21.8924C131.875 21.8924 130.912 23.1166 130.831 24.3608ZM136.39 26.8695L138.016 27.4314C137.474 29.1372 135.929 30.4819 133.681 30.4819C131.092 30.4819 128.824 28.5954 128.824 25.3241C128.824 22.2937 131.012 20.2266 133.44 20.2266C136.411 20.2266 138.076 22.2737 138.076 25.284C138.076 25.5248 138.056 25.7657 138.036 25.8861H130.771C130.811 27.612 132.056 28.8161 133.681 28.8161C135.247 28.8161 136.029 27.9532 136.39 26.8695Z" fill="white"/>
</svg>
