<svg width="534" height="396" viewBox="0 0 534 396" fill="none" xmlns="http://www.w3.org/2000/svg">
<g clip-path="url(#clip0_1_4321)">
<path d="M346.999 50.4044V59.8748C346.999 62.2929 345.036 64.256 342.618 64.256H334.585L331.571 71.3875L328.558 64.256H320.524C318.106 64.256 316.143 62.2929 316.143 59.8748V50.4044C316.143 47.9863 318.106 46.0233 320.524 46.0233H342.618C345.036 46.0233 346.999 47.9863 346.999 50.4044Z" fill="#D9DEE2"/>
<path d="M331.476 52.0123H338.689V53.068L342.227 51.0282L338.689 48.9885V50.0441H331.476V52.0123Z" fill="#00569D"/>
<path d="M342.227 56.1607H335.011V55.105L331.476 57.1448L335.011 59.182V58.1264H342.227V56.1607Z" fill="#1876AA"/>
<path d="M327.047 58.0162L326.705 58.1415C326.705 58.1415 325.634 56.9196 325.079 55.5879C324.524 54.2562 324.504 52.6305 324.504 52.6305L324.754 52.5257L323.228 48.8755C322.958 49.0877 322.697 49.3612 322.487 49.7165C321.623 51.176 321.71 53.4152 322.577 55.6007C323.446 57.7887 324.374 59.739 326.068 60.966C327.068 61.6893 327.924 61.8171 328.591 61.7123L327.047 58.0162Z" fill="#E44100"/>
<path d="M328.144 57.5863L327.669 57.7575L329.231 61.4946C329.407 61.4383 329.566 61.3668 329.704 61.2901C330.107 61.0703 330.284 60.5846 330.115 60.1577L329.3 58.1026C329.118 57.6451 328.607 57.4176 328.144 57.5837V57.5863Z" fill="#E44100"/>
<path d="M324.419 48.2338C324.227 48.3028 324.018 48.3974 323.808 48.5201L325.367 52.2494L325.891 52.0296C326.346 51.8404 326.566 51.3216 326.387 50.8615L325.569 48.7578C325.39 48.3002 324.882 48.0651 324.422 48.2312L324.419 48.2338Z" fill="#E44100"/>
<path d="M220.364 110.067V80.3646C220.364 80.3646 220.034 72.3614 224.241 70.0507C228.449 67.7399 246.188 68.9771 246.188 68.9771V110.067H220.364Z" fill="#01B9EF"/>
<path d="M251.727 41.1717C251.727 41.1717 250.654 50.1641 250.242 50.9079L249.831 51.6492L247.768 53.0525C247.768 53.0525 251.727 58.6632 256.597 59.5706C261.463 60.478 261.052 57.5896 261.052 57.5896L260.308 56.0227L261.297 47.4418C261.297 47.4418 252.469 43.3981 251.727 41.1717Z" fill="#FAB001"/>
<path d="M245.21 53.7961L248.428 52.3928C248.428 52.3928 250.491 55.7745 255.276 57.7555C260.061 59.7365 260.143 58.5811 260.391 57.7555C260.639 56.9299 260.309 56.0224 260.309 56.0224L260.664 53.134L262.579 53.7731L269.222 107.51L252.142 108.336L245.213 53.7986L245.21 53.7961Z" fill="#F1F3F4"/>
<path d="M289.187 101.897C289.187 101.897 287.702 110.069 287.454 110.069H265.917C265.917 110.069 265.83 101.347 265.689 93.7887C265.641 90.9182 265.577 88.2215 265.51 86.2252C265.263 78.9633 264.273 68.3989 263.197 62.1262C262.157 56.058 261.045 53.3613 260.976 53.1951C261.068 53.2207 261.825 53.4559 262.937 53.8393C264.984 54.5371 268.225 55.7078 270.704 56.9322C274.503 58.8007 276.315 60.3165 277.718 67.8238C279.121 75.3336 278.955 91.6365 279.282 92.5209C279.778 93.8373 289.184 101.897 289.184 101.897H289.187Z" fill="#E44100"/>
<path d="M272.191 100.612C272.081 100.612 271.992 100.522 271.992 100.412C271.992 99.8217 271.887 91.4402 271.785 83.3348C271.682 75.2294 271.578 66.8453 271.578 66.2523C271.578 66.1424 271.667 66.0529 271.777 66.0529C271.887 66.0529 271.976 66.1424 271.976 66.2523C271.976 66.8428 272.081 75.2242 272.183 83.3297C272.286 91.4351 272.39 99.8191 272.39 100.412C272.39 100.522 272.301 100.612 272.191 100.612Z" fill="#FA5815"/>
<path d="M229.289 98.597L229.123 110.066H254.205C254.205 110.066 255.279 100.33 254.865 99.4226C254.453 98.5152 229.289 98.597 229.289 98.597Z" fill="#E44100"/>
<g opacity="0.2">
<path d="M257.204 50.6594C258.226 51.4824 259.624 52.1445 260.713 52.5432L261.301 47.4412C261.301 47.4412 254.671 44.4046 252.419 42.1424C252.889 44.7113 254.045 48.1135 257.201 50.6568L257.204 50.6594Z" fill="#385A63"/>
</g>
<path d="M269.054 24.4235C269.054 24.4235 270.787 27.3937 271.117 31.0234C271.447 34.653 271.117 43.9777 268.147 47.9372C265.177 51.8966 258.989 50.7412 256.185 48.3487C253.611 46.153 251.07 43.7272 250.408 38.9422C249.749 34.1572 251.811 25.0804 257.67 23.1838C263.528 21.2871 269.054 24.4209 269.054 24.4209V24.4235Z" fill="#EF9F00"/>
<path d="M276.497 104.88C276.497 104.88 276.206 104.88 275.763 104.868C275.659 104.862 275.544 104.868 275.423 104.862C274.997 104.85 274.478 104.839 273.956 104.822C273.841 104.816 273.721 104.814 273.606 104.809C273.087 104.796 272.645 104.86 272.231 104.837H272.218C272.131 104.832 272.003 104.845 271.899 104.85C271.847 104.855 271.799 104.857 271.768 104.855C271.528 104.811 271.482 104.755 271.221 104.64C270.886 104.489 266.352 103.474 262.664 103.5C258.978 103.515 255.673 103.768 255.134 103.316C254.592 102.858 254.265 98.2268 257.411 97.9252L261.278 99.3924C261.278 99.3924 270.112 98.3444 273.35 100.732C276.597 103.122 276.497 104.88 276.497 104.88Z" fill="#FAB001"/>
<path d="M272.219 104.839C272.132 104.834 272.004 104.847 271.899 104.852C271.82 104.724 271.651 104.494 271.559 104.397C270.563 103.38 268.155 102.723 267.281 102.511C267.201 102.49 267.15 102.411 267.168 102.332C267.183 102.253 267.268 102.204 267.352 102.219C268.625 102.526 271.324 103.311 272.088 104.599C272.111 104.635 272.175 104.758 272.216 104.839H272.219Z" fill="#EF9F00"/>
<path d="M273.957 104.824C273.842 104.821 273.722 104.819 273.607 104.811C272.518 102.825 270.737 102.255 268.536 101.547L268.405 101.503C268.331 101.478 268.285 101.394 268.311 101.314C268.336 101.24 268.418 101.194 268.5 101.22L268.628 101.263C270.956 102.01 272.827 102.61 273.957 104.824Z" fill="#EF9F00"/>
<path d="M275.764 104.868C275.659 104.868 275.544 104.868 275.424 104.863C274.765 103.475 272.579 101.151 269.688 100.609C269.604 100.597 269.55 100.517 269.566 100.435C269.583 100.356 269.66 100.303 269.739 100.315C272.717 100.875 275.12 103.306 275.764 104.865V104.868Z" fill="#EF9F00"/>
<path d="M252.39 34.8603C252.39 34.8603 254.204 33.9938 255.482 31.5604C256.76 29.127 256.597 26.939 256.597 26.939C256.597 26.939 258.908 26.5683 262.374 27.5984C265.84 28.6285 269.965 30.0319 273.428 28.0534C276.894 26.0724 276.894 22.8977 275.202 21.5762C273.308 20.0988 269.551 20.9986 269.551 20.9986C269.551 20.9986 270.995 19.5953 270.21 18.7696C269.426 17.944 266.581 19.0176 266.581 19.0176C266.581 19.0176 263.115 16.2544 256.556 16.5842C249.997 16.9139 246.861 21.4944 246.49 26.6092C246.12 31.724 247.975 36.8413 247.975 36.8413L252.39 34.8603Z" fill="#385A63"/>
<path d="M250.079 41.9149C250.079 41.9149 250.409 43.1929 252.308 44.678C254.205 46.1631 256.955 47.2495 256.955 47.2495L257.175 46.2858C257.175 46.2858 254.327 45.0487 253.008 43.6863C251.689 42.3239 251.523 41.5826 251.523 41.5826L250.079 41.9123V41.9149Z" fill="#D9DEE2"/>
<path d="M257.504 45.5755C259.03 45.5039 259.884 46.713 259.991 47.4926C260.098 48.2747 259.365 49.1489 257.647 48.3795C255.515 47.4236 255.978 45.6445 257.504 45.5729V45.5755Z" fill="#00569D"/>
<path d="M251.275 32.4681C251.275 32.4681 251.934 27.7265 255.111 24.5058C261.177 18.3584 266.332 18.729 266.332 18.729C266.332 18.729 266.291 17.8625 264.351 17.203C262.531 16.5844 261.711 16.9141 261.711 16.9141C261.711 16.9141 256.719 17.3257 252.512 21.988C248.305 26.6504 247.85 32.5908 247.85 32.5908L251.275 32.4681Z" fill="#D9DEE2"/>
<path d="M250.821 31.89C246.849 31.2177 244.633 34.3234 244.469 37.4597C244.303 40.5961 246.583 42.9784 249.624 42.7407C256.472 42.2039 255.69 32.7156 250.821 31.89Z" fill="#F1F3F4"/>
<path d="M248.842 39.691C247.794 39.691 246.907 39.1644 246.401 38.2365C245.859 37.2422 245.905 36.0178 246.516 35.1181C246.562 35.0491 246.657 35.0337 246.723 35.0797C246.792 35.1257 246.81 35.2203 246.762 35.2868C246.212 36.0945 246.171 37.1962 246.662 38.0934C247.127 38.9446 247.945 39.4251 248.916 39.3919C249.824 39.3689 250.593 38.9522 251.081 38.2237C251.639 37.3904 251.769 36.2402 251.409 35.2944C251.051 34.3563 250.074 33.7148 249.182 33.8298C249.103 33.84 249.026 33.7838 249.014 33.702C249.003 33.6202 249.06 33.5461 249.141 33.5333C250.182 33.3952 251.276 34.1058 251.685 35.1871C252.078 36.2223 251.938 37.4799 251.327 38.3899C250.782 39.2027 249.926 39.6654 248.919 39.691C248.891 39.691 248.863 39.691 248.835 39.691H248.842Z" fill="#385A63"/>
<path d="M260.06 98.5942C260.06 98.5942 258.897 98.9955 257.982 100.907C256.985 102.968 257.011 104.371 257.011 104.371C257.011 104.371 250.907 104.706 244.469 104.371C238.035 104.044 230.032 101.817 228.215 100.58C226.402 99.3432 223.348 97.5258 223.432 93.1523C223.512 88.7787 225.493 65.1833 229.697 60.3957C232.974 56.6714 241.003 54.0437 244.392 53.0673C245.355 52.7887 245.951 52.6404 245.951 52.6404C245.951 52.6404 250.324 61.2264 252.055 70.8757C253.236 77.4373 254.084 89.4561 254.399 94.4047V94.4099C254.491 95.7902 254.534 96.6183 254.534 96.6183L260.058 98.5968L260.06 98.5942Z" fill="#E44100"/>
<path d="M254.401 94.4021V94.4072L254.302 94.4864C254.266 94.5299 254.215 94.5478 254.166 94.5478C254.11 94.5478 254.061 94.5299 254.023 94.4864C253.083 93.5406 248.561 85.7164 248.229 84.2441C248.042 83.4338 248.507 81.3914 248.952 79.413C249.3 77.8845 249.657 76.3022 249.558 75.8677C249.404 75.2312 248.246 74.2855 247.127 73.3678C245.777 72.2661 244.382 71.1235 244.108 70.096C243.804 68.9278 244.065 61.6148 244.239 56.7786C244.3 55.0405 244.351 53.6602 244.351 53.172C244.351 53.1285 244.364 53.0927 244.395 53.0595C245.358 52.7809 245.954 52.6326 245.954 52.6326C245.954 52.6326 250.327 61.2186 252.058 70.8679C253.238 77.4295 254.087 89.4483 254.401 94.3969V94.4021Z" fill="#FA5815"/>
<path d="M237.951 91.1232C237.951 91.1232 237.933 91.1232 237.923 91.1232C237.813 91.1079 237.739 91.0057 237.754 90.8983C237.9 89.8605 240.19 69.2046 240.295 67.6223C240.303 67.5124 240.397 67.4255 240.507 67.4358C240.617 67.4434 240.699 67.538 240.694 67.6479C240.589 69.2327 238.296 89.9168 238.151 90.9545C238.138 91.0542 238.051 91.1258 237.954 91.1258L237.951 91.1232Z" fill="#FA5815"/>
<path d="M254.369 96.7337C254.343 96.7337 254.317 96.7286 254.294 96.7183C253.788 96.5139 251.547 95.7573 248.71 94.8013C242.984 92.8688 235.142 90.2258 233.652 89.4513C233.555 89.4002 233.516 89.2801 233.568 89.1829C233.619 89.0858 233.739 89.0449 233.836 89.0986C235.301 89.8603 243.447 92.6056 248.837 94.4255C251.68 95.3841 253.926 96.1407 254.445 96.3528C254.548 96.3937 254.596 96.5113 254.555 96.6135C254.525 96.6902 254.448 96.7388 254.371 96.7388L254.369 96.7337Z" fill="#FA5815"/>
<path d="M251.615 104.959C246.574 104.959 236.805 104.052 229.385 101.427C229.28 101.391 229.226 101.276 229.262 101.171C229.298 101.066 229.413 101.013 229.515 101.048C238.891 104.364 252.006 104.931 254.447 104.384C254.554 104.361 254.661 104.428 254.684 104.535C254.707 104.642 254.641 104.75 254.534 104.773C254.004 104.89 252.985 104.959 251.612 104.959H251.615Z" fill="#FA5815"/>
<path d="M193.941 55.4224C195.505 56.7976 197.486 57.6795 198.859 59.2719C199.398 59.8982 199.884 60.5653 200.385 61.2197C200.75 61.6977 201.724 62.4901 201.883 63.0907C201.952 63.354 201.936 62.9962 201.867 62.7329C201.865 62.7227 201.86 62.7099 201.855 62.6997C201.717 61.4829 201.619 60.2637 201.576 59.0393C201.532 57.82 201.609 56.5957 201.532 55.3764C201.425 53.6587 200.888 51.9947 199.485 50.9185C198.798 50.392 197.916 50.0725 197.284 49.4871C196.686 48.9324 196.927 48.2985 197.277 47.6799C197.606 47.1023 198.005 46.5323 198.133 45.8677C198.279 45.1111 197.995 44.3314 197.612 43.6847C196.794 42.3121 194.981 40.7836 193.266 40.988C191.835 41.1593 191.674 42.8106 191.694 43.9608C191.715 45.0778 191.825 46.1948 191.835 47.3119C191.845 48.4621 191.651 49.5894 191.633 50.7319C191.605 52.6771 192.505 54.1622 193.936 55.4199L193.941 55.4224Z" fill="#43AB42"/>
<path d="M208.477 73.2823C208.912 72.2445 209.413 71.2732 210.026 70.3274C210.87 69.0315 211.805 67.7688 212.37 66.3169C212.948 64.8344 212.863 63.2496 212.92 61.6903C212.961 60.5426 213.303 59.4001 213.211 58.2498C213.168 57.6977 212.848 56.8056 212.135 56.8976C211.58 56.9692 211.251 57.6568 211.036 58.0964C210.663 58.8633 210.405 59.6812 210.129 60.4839C210.021 60.7983 209.916 61.1178 209.781 61.4219C209.702 61.5983 209.449 62.0303 209.211 61.9715C208.804 61.8718 209.173 60.2155 209.234 59.9241C209.538 58.4517 209.993 57.0842 210.057 55.5685C210.149 53.3728 209.978 50.7578 207.831 49.5565C207.268 49.2421 206.558 49.0555 206.024 49.5258C205.497 49.9885 205.349 50.7911 205.269 51.4531C205.029 53.4827 205.507 55.4023 206.156 57.3117C206.693 58.8888 207.332 60.5145 207.378 62.199C207.424 63.8221 206.578 65.2587 206.182 66.7923C205.551 69.236 205.681 70.5294 205.678 71.3218C205.673 72.3135 205.709 73.2925 205.783 74.2817C205.85 75.1892 205.929 76.0991 206.039 77.0014C206.062 77.1855 206.082 77.3746 206.105 77.5663C205.755 76.7254 205.635 75.7643 205.346 74.9182C204.832 73.4178 204.237 71.948 203.744 70.4399C203.337 69.1951 202.951 67.94 202.414 66.7412C201.911 65.6165 201.3 64.4305 200.359 63.6049C199.792 63.1064 199.102 62.815 198.34 62.8201C197.854 62.8227 197.417 62.9914 196.952 63.1141C196.38 63.2649 195.93 63.2138 195.459 62.8508C193.921 61.6673 193.45 59.5458 192.31 58.0479C191.459 56.9309 189.443 55.024 187.96 56.2433C187.173 56.89 186.956 58.1399 186.996 59.0959C187.048 60.2973 187.574 61.3964 188.198 62.4009C188.862 63.4694 189.721 64.4254 190.332 65.5245C190.692 66.1738 190.749 66.7949 190.692 67.5285C190.639 68.2186 190.577 68.8858 190.813 69.5504C191.518 71.5493 193.721 71.2706 195.436 71.3218C196.635 71.3575 197.923 71.5365 199.061 71.9199C200.377 72.3621 201.234 73.2184 201.704 74.522C202.044 75.4652 202.225 76.5337 202.867 77.3337C203.168 77.7095 203.567 77.9881 204.007 78.1824C204.676 78.4789 206.714 78.6067 206.729 78.4201C206.78 77.7964 207.074 77.1395 207.261 76.549C207.608 75.4397 208.015 74.3584 208.465 73.2874L208.477 73.2823Z" fill="#43AB42"/>
<path d="M217.941 72.9064C217.764 71.7638 217.797 70.5062 217.256 69.4557C217.217 69.3815 217.115 69.3611 217.046 69.3994C216.657 69.6141 216.642 70.2404 216.611 70.6238C216.56 71.2603 216.599 71.8993 216.519 72.5332C216.381 73.6477 216.123 74.7979 215.722 75.8485C215.267 77.0371 214.441 77.7119 213.24 78.0825C212.468 78.3203 211.712 78.5273 211.067 79.0411C210.492 79.4986 210.091 80.1325 209.795 80.7971C208.992 82.5941 208.611 84.6032 208.24 86.5228C207.99 87.8162 207.785 89.1147 207.471 90.3953C207.157 91.6734 206.819 92.9463 206.64 94.2551C206.61 94.3215 206.579 94.3854 206.551 94.4519C206.469 94.6461 206.773 94.7535 206.881 94.5899C208.12 92.683 209.628 90.9705 211.689 89.9199C212.619 89.4445 213.853 89.3473 214.631 88.6009C215.221 88.0335 215.303 87.1695 215.213 86.3976C215.098 85.3854 214.613 84.5495 214.107 83.6855C213.828 83.2101 213.501 82.704 213.613 82.1263C213.718 81.5819 214.17 81.1831 214.62 80.9045C215.477 80.3728 216.479 80.1351 217.179 79.3683C217.831 78.6577 218.191 77.7707 218.263 76.8122C218.36 75.5341 218.14 74.164 217.943 72.9039L217.941 72.9064Z" fill="#43AB42"/>
<path d="M201.047 79.4905C199.953 78.0821 198.635 76.868 197.149 75.8813C196.357 75.3547 194.489 74.317 194.11 75.8685C193.891 76.7785 194.78 77.6731 195.365 78.2431C196.247 79.0994 197.265 79.8407 198.008 80.8274C197.088 81.1213 196.127 81.1776 195.327 81.814C194.381 82.5681 193.957 84.02 194.895 84.9427C195.353 85.3926 195.958 85.6687 196.528 85.9447C197.27 86.3026 198.021 86.6272 198.78 86.9442C200.419 87.6292 202.078 88.3219 203.473 89.444C204.897 90.5866 206.236 92.519 206.349 94.3824C206.359 94.5614 206.292 94.3978 206.397 94.316C206.456 94.3671 206.65 94.2751 206.65 94.1703C206.622 91.4046 206.124 88.7718 204.994 86.2387C203.946 83.8896 202.625 81.5252 201.045 79.4905H201.047Z" fill="#43AB42"/>
<path d="M197.269 53.7479C197.872 55.0004 198.503 56.2223 199.173 57.4441C199.817 58.6199 200.461 59.7855 200.944 61.0405C201.537 62.5844 202.161 64.1053 202.787 65.6364C203.439 67.2263 204.022 68.8469 204.49 70.5007C205.402 73.7291 206.082 77.0546 206.417 80.3954C206.588 82.0927 206.665 83.8027 206.619 85.5102C206.583 86.8445 206.432 88.1634 206.307 89.4901C206.176 90.8703 206.082 92.2685 206.197 93.654C206.294 94.8119 206.478 96.1896 207.375 97.0152C207.552 97.1763 207.8 96.9743 207.697 96.7673C206.629 94.5767 206.69 92.1893 206.892 89.8147C207.005 88.5034 207.161 87.1998 207.207 85.8834C207.263 84.2091 207.196 82.5323 207.04 80.8632C206.731 77.5862 206.077 74.3451 205.228 71.1678C204.794 69.537 204.254 67.9395 203.636 66.37C203.015 64.798 202.296 63.2669 201.696 61.6872C200.607 58.8295 198.948 56.2938 197.478 53.6304C197.402 53.4923 197.202 53.6125 197.269 53.7531V53.7479Z" fill="#FAB001"/>
<path d="M206.465 77.1186C206.638 75.0379 206.823 73.0339 207.523 71.0479C207.85 70.1225 208.246 69.2202 208.563 68.2924C208.824 67.523 209.215 66.4699 209.013 65.6545C208.99 65.5624 208.857 65.5675 208.832 65.6545C208.696 66.1197 208.711 66.6334 208.614 67.1114C208.52 67.5766 208.394 68.0342 208.249 68.4866C207.942 69.4477 207.538 70.3705 207.191 71.3162C206.518 73.1464 206.171 75.1709 206.319 77.1212C206.327 77.2132 206.454 77.2132 206.462 77.1212L206.465 77.1186Z" fill="#61C759"/>
<path d="M194.407 65.156C195.232 67.1523 197.717 67.2674 199.527 67.7147C200.817 68.0342 201.771 68.8956 202.456 70.0152C203.205 71.2396 203.713 72.6761 204.13 74.0411C204.135 74.0564 204.158 74.0513 204.153 74.0334C203.647 71.6409 202.921 68.7601 200.457 67.6482C198.481 66.7561 195.877 67.2035 194.614 65.0691C194.552 64.9643 194.358 65.0333 194.409 65.156H194.407Z" fill="#61C759"/>
<path d="M205.159 76.8012C205.256 76.9342 205.349 77.0722 205.448 77.2026C205.499 77.2665 205.55 77.3278 205.612 77.3789C205.676 77.4326 205.752 77.4991 205.842 77.4965C205.878 77.4965 205.906 77.4556 205.885 77.4224C205.844 77.3559 205.77 77.315 205.714 77.2639C205.655 77.2128 205.594 77.1617 205.538 77.1054C205.423 76.9955 205.315 76.8779 205.203 76.7655C205.18 76.745 205.139 76.7731 205.159 76.7987V76.8012Z" fill="#61C759"/>
<path d="M199.993 83.133C201.417 84.3037 202.733 85.6865 203.776 87.2023C204.275 87.9282 204.737 88.6951 205.154 89.4696C205.611 90.3156 205.91 91.2103 206.268 92.0973C206.296 92.1637 206.419 92.1663 206.409 92.0794C206.212 90.2032 205.021 88.5928 204.07 87.031C203.577 86.2208 202.961 85.5664 202.299 84.889C201.616 84.1912 200.921 83.5292 200.118 82.9668C200.021 82.8978 199.896 83.0563 199.991 83.133H199.993Z" fill="#61C759"/>
<path d="M211.342 80.9247C210.654 81.3132 210.634 82.397 210.619 83.0897C210.593 84.4189 210.923 85.6688 210.337 86.9367C209.811 88.0818 208.967 89.0378 208.305 90.1011C207.684 91.0955 207.073 92.3684 207.089 93.5672C207.089 93.6362 207.196 93.6746 207.229 93.6056C207.48 93.0611 207.569 92.4451 207.748 91.8751C207.95 91.2335 208.231 90.6533 208.594 90.0884C209.231 89.1017 210.013 88.202 210.532 87.1412C211.076 86.0216 210.997 84.9122 210.961 83.7006C210.938 82.9261 210.861 81.6839 211.485 81.1087C211.582 81.0193 211.457 80.8634 211.344 80.9273L211.342 80.9247Z" fill="#61C759"/>
<path d="M206.752 93.6897C203.986 93.6514 198.721 93.6207 198.721 93.6207L200.024 103.296C200.318 105.473 202.176 107.097 204.372 107.097H209.131C211.327 107.097 213.185 105.473 213.479 103.296L214.783 93.6207C214.783 93.6207 209.517 93.6514 206.752 93.6897Z" fill="#EF9F00"/>
<path d="M340.383 75.9092L324.61 107.15L278.627 107.482L292.818 75.467L340.383 75.9092Z" fill="#D9DEE2"/>
<path d="M248.111 107.288L248.119 104.788H277.886L291.581 74.7537H339.188L340.384 75.9091H293.877L279.645 107.262C279.645 107.262 248.108 107.206 248.108 107.288H248.111Z" fill="#F1F3F4"/>
<path d="M316.506 93.1475C315.987 94.7068 313.168 95.9081 310.208 95.8366C307.251 95.7624 305.272 94.4384 305.791 92.8817C306.31 91.3225 309.129 90.1211 312.089 90.1927C315.047 90.2668 317.025 91.5909 316.506 93.1475Z" fill="#F1F3F4"/>
<path d="M239.891 36.6417L234.393 38.9601V40.2662C234.393 42.122 232.89 43.625 231.035 43.625H214.106C212.255 43.625 210.752 42.122 210.752 40.2662V33.012C210.752 31.1614 212.255 29.6584 214.106 29.6584H231.035C232.89 29.6584 234.393 31.1614 234.393 33.012V34.3233L239.891 36.6417Z" fill="#D9DEE2"/>
<path d="M217.706 37.0971C217.958 36.0323 217.298 34.9654 216.234 34.7141C215.169 34.4628 214.102 35.1222 213.851 36.187C213.599 37.2519 214.259 38.3188 215.323 38.5701C216.388 38.8214 217.455 38.162 217.706 37.0971Z" fill="#04377D"/>
<path d="M223.974 38.0416C224.748 37.268 224.748 36.0137 223.974 35.24C223.201 34.4664 221.946 34.4664 221.173 35.24C220.399 36.0137 220.399 37.268 221.173 38.0416C221.946 38.8152 223.201 38.8152 223.974 38.0416Z" fill="#04377D"/>
<path d="M230.765 38.0424C231.538 37.2687 231.538 36.0145 230.765 35.2408C229.991 34.4672 228.737 34.4672 227.963 35.2408C227.19 36.0145 227.19 37.2687 227.963 38.0424C228.737 38.816 229.991 38.816 230.765 38.0424Z" fill="#04377D"/>
<path d="M330.537 0.000183105H285.957C283.094 0.000183105 280.773 2.32113 280.773 5.18398V26.3332C280.773 29.1961 283.094 31.517 285.957 31.517H289.952C290.065 33.4341 289.789 36.2867 288.188 39.9318C293.339 37.5571 296.304 33.9888 297.853 31.517H330.534C333.397 31.517 335.718 29.1961 335.718 26.3332V5.18398C335.718 2.32113 333.397 0.000183105 330.534 0.000183105H330.537Z" fill="#7CCFF5"/>
<path d="M345.339 111.516C345.339 113.957 343.36 115.935 340.919 115.935H191.419C188.978 115.935 187 113.957 187 111.516C187 109.075 188.978 107.096 191.419 107.096H340.919C343.36 107.096 345.339 109.075 345.339 111.516Z" fill="#1A2E35"/>
<path d="M340.581 147.6V115.935H191.756V147.6C191.756 151.015 194.525 153.786 197.942 153.786H334.396C337.811 153.786 340.581 151.018 340.581 147.6Z" fill="#385A63"/>
<path d="M312.108 8.97959H286.077C285.361 8.97959 284.781 8.39935 284.781 7.68364C284.781 6.96793 285.361 6.3877 286.077 6.3877H312.108C312.823 6.3877 313.404 6.96793 313.404 7.68364C313.404 8.39935 312.823 8.97959 312.108 8.97959Z" fill="#01B9EF"/>
<path d="M330.416 8.97959H317.999C317.283 8.97959 316.703 8.39935 316.703 7.68364C316.703 6.96793 317.283 6.3877 317.999 6.3877H330.416C331.132 6.3877 331.712 6.96793 331.712 7.68364C331.712 8.39935 331.132 8.97959 330.416 8.97959Z" fill="#01B9EF"/>
<path d="M312.108 22.5628H286.077C285.361 22.5628 284.781 21.9825 284.781 21.2668C284.781 20.5511 285.361 19.9709 286.077 19.9709H312.108C312.823 19.9709 313.404 20.5511 313.404 21.2668C313.404 21.9825 312.823 22.5628 312.108 22.5628Z" fill="#01B9EF"/>
<path d="M330.416 22.5628H317.999C317.283 22.5628 316.703 21.9825 316.703 21.2668C316.703 20.5511 317.283 19.9709 317.999 19.9709H330.416C331.132 19.9709 331.712 20.5511 331.712 21.2668C331.712 21.9825 331.132 22.5628 330.416 22.5628Z" fill="#01B9EF"/>
<path d="M304.387 13.1818H330.417C331.133 13.1818 331.713 13.7621 331.713 14.4778C331.713 15.1935 331.133 15.7737 330.417 15.7737H304.387C303.671 15.7737 303.091 15.1935 303.091 14.4778C303.091 13.7621 303.671 13.1818 304.387 13.1818Z" fill="#01B9EF"/>
<path d="M286.077 13.1818H298.494C299.21 13.1818 299.79 13.7621 299.79 14.4778C299.79 15.1935 299.21 15.7737 298.494 15.7737H286.077C285.361 15.7737 284.781 15.1935 284.781 14.4778C284.781 13.7621 285.361 13.1818 286.077 13.1818Z" fill="#01B9EF"/>
<path d="M269.049 78.8329C269.619 79.8476 269.353 81.2075 269.141 82.3041L269.085 82.5878C268.849 83.8607 267.576 90.4069 266.104 93.7273C266.074 93.8014 265.999 93.8449 265.918 93.8449C265.892 93.8449 265.869 93.8398 265.838 93.8321C265.813 93.8193 265.759 93.8066 265.69 93.7887C265.642 90.9182 265.578 88.2215 265.511 86.2251C265.263 78.9632 264.274 68.3988 263.198 62.1261C262.158 56.0579 261.046 53.3612 260.977 53.1951L260.972 53.1899C260.915 53.0979 262.505 53.7216 262.605 53.6654C262.697 53.6092 262.822 53.6398 262.876 53.7344C262.894 53.7727 262.919 53.8034 262.937 53.8392C264.458 56.4234 265.659 59.0895 266.81 61.6583C267.006 62.098 267.206 62.53 267.398 62.9569C267.541 63.2789 267.689 63.601 267.837 63.9205C268.203 64.7052 268.578 65.5232 268.913 66.3386L269.036 66.6351C269.407 67.5195 269.79 68.4295 269.215 69.4187C269.028 69.7408 268.714 70.2111 268.356 70.7479C267.663 71.7754 266.229 73.92 266.426 74.2855C266.574 74.5565 267.106 75.4792 267.676 76.4506C268.226 77.3963 268.796 78.3804 269.049 78.8329Z" fill="#FA5815"/>
<path d="M326.487 162.4C325.376 162.4 324.345 161.823 323.765 160.874L319.267 153.521H329.68V159.21C329.68 160.972 328.251 162.4 326.49 162.4H326.487Z" fill="#1A2E35"/>
<path d="M205.85 162.4C206.962 162.4 207.992 161.823 208.572 160.874L213.071 153.521H202.657V159.21C202.657 160.972 204.086 162.4 205.847 162.4H205.85Z" fill="#1A2E35"/>
</g>
<path d="M11.68 217.4V200.12H14.572V207.392H22.756V200.12H25.636V217.4H22.756V210.104H14.572V217.4H11.68ZM34.7243 217.76C33.4283 217.76 32.2963 217.468 31.3283 216.884C30.3603 216.3 29.6083 215.496 29.0723 214.472C28.5443 213.44 28.2803 212.256 28.2803 210.92C28.2803 209.56 28.5523 208.368 29.0963 207.344C29.6403 206.32 30.3963 205.52 31.3643 204.944C32.3323 204.368 33.4523 204.08 34.7243 204.08C36.0283 204.08 37.1643 204.372 38.1323 204.956C39.1003 205.54 39.8523 206.348 40.3883 207.38C40.9243 208.404 41.1923 209.584 41.1923 210.92C41.1923 212.264 40.9203 213.452 40.3763 214.484C39.8403 215.508 39.0883 216.312 38.1203 216.896C37.1523 217.472 36.0203 217.76 34.7243 217.76ZM34.7243 215.048C35.8763 215.048 36.7323 214.664 37.2923 213.896C37.8523 213.128 38.1323 212.136 38.1323 210.92C38.1323 209.664 37.8483 208.664 37.2803 207.92C36.7123 207.168 35.8603 206.792 34.7243 206.792C33.9483 206.792 33.3083 206.968 32.8043 207.32C32.3083 207.664 31.9403 208.148 31.7003 208.772C31.4603 209.388 31.3403 210.104 31.3403 210.92C31.3403 212.176 31.6243 213.18 32.1923 213.932C32.7683 214.676 33.6123 215.048 34.7243 215.048ZM46.1275 217.4L42.1675 204.416L44.9995 204.44L47.5315 212.756L50.0995 204.44H52.5355L55.0915 212.756L57.6355 204.44H60.4675L56.5075 217.4H54.2515L51.3115 208.484L48.3835 217.4H46.1275ZM75.0338 217.4C74.1778 217.56 73.3378 217.628 72.5138 217.604C71.6978 217.588 70.9658 217.44 70.3178 217.16C69.6698 216.872 69.1778 216.42 68.8418 215.804C68.5458 215.244 68.3898 214.672 68.3738 214.088C68.3578 213.504 68.3498 212.844 68.3498 212.108V200.84H71.2298V211.94C71.2298 212.46 71.2338 212.916 71.2418 213.308C71.2578 213.7 71.3418 214.02 71.4938 214.268C71.7818 214.748 72.2418 215.016 72.8738 215.072C73.5058 215.128 74.2258 215.096 75.0338 214.976V217.4ZM65.9978 206.708V204.44H75.0338V206.708H65.9978ZM82.8884 217.76C81.5924 217.76 80.4604 217.468 79.4924 216.884C78.5244 216.3 77.7724 215.496 77.2364 214.472C76.7084 213.44 76.4444 212.256 76.4444 210.92C76.4444 209.56 76.7164 208.368 77.2604 207.344C77.8044 206.32 78.5604 205.52 79.5284 204.944C80.4964 204.368 81.6164 204.08 82.8884 204.08C84.1924 204.08 85.3284 204.372 86.2964 204.956C87.2644 205.54 88.0164 206.348 88.5524 207.38C89.0884 208.404 89.3564 209.584 89.3564 210.92C89.3564 212.264 89.0844 213.452 88.5404 214.484C88.0044 215.508 87.2524 216.312 86.2844 216.896C85.3164 217.472 84.1844 217.76 82.8884 217.76ZM82.8884 215.048C84.0404 215.048 84.8964 214.664 85.4564 213.896C86.0164 213.128 86.2964 212.136 86.2964 210.92C86.2964 209.664 86.0124 208.664 85.4444 207.92C84.8764 207.168 84.0244 206.792 82.8884 206.792C82.1124 206.792 81.4724 206.968 80.9684 207.32C80.4724 207.664 80.1044 208.148 79.8644 208.772C79.6244 209.388 79.5044 210.104 79.5044 210.92C79.5044 212.176 79.7884 213.18 80.3564 213.932C80.9324 214.676 81.7764 215.048 82.8884 215.048ZM103.201 217.76C101.937 217.76 100.797 217.54 99.781 217.1C98.773 216.66 97.941 216.032 97.285 215.216C96.637 214.392 96.225 213.416 96.049 212.288L99.049 211.832C99.305 212.856 99.829 213.648 100.621 214.208C101.421 214.768 102.341 215.048 103.381 215.048C103.997 215.048 104.577 214.952 105.121 214.76C105.665 214.568 106.105 214.288 106.441 213.92C106.785 213.552 106.957 213.1 106.957 212.564C106.957 212.324 106.917 212.104 106.837 211.904C106.757 211.696 106.637 211.512 106.477 211.352C106.325 211.192 106.125 211.048 105.877 210.92C105.637 210.784 105.357 210.668 105.037 210.572L100.573 209.252C100.189 209.14 99.773 208.992 99.325 208.808C98.885 208.616 98.465 208.356 98.065 208.028C97.673 207.692 97.349 207.268 97.093 206.756C96.845 206.236 96.721 205.596 96.721 204.836C96.721 203.724 97.001 202.792 97.561 202.04C98.129 201.28 98.889 200.712 99.841 200.336C100.801 199.96 101.865 199.776 103.033 199.784C104.217 199.792 105.273 199.996 106.201 200.396C107.129 200.788 107.905 201.36 108.529 202.112C109.153 202.864 109.593 203.772 109.849 204.836L106.741 205.376C106.613 204.768 106.365 204.252 105.997 203.828C105.637 203.396 105.193 203.068 104.665 202.844C104.145 202.62 103.589 202.5 102.997 202.484C102.421 202.476 101.885 202.564 101.389 202.748C100.901 202.924 100.505 203.18 100.201 203.516C99.905 203.852 99.757 204.244 99.757 204.692C99.757 205.116 99.885 205.464 100.141 205.736C100.397 206 100.713 206.212 101.089 206.372C101.473 206.524 101.861 206.652 102.253 206.756L105.349 207.62C105.773 207.732 106.249 207.884 106.777 208.076C107.305 208.268 107.813 208.536 108.301 208.88C108.789 209.224 109.189 209.676 109.501 210.236C109.821 210.796 109.981 211.508 109.981 212.372C109.981 213.268 109.793 214.056 109.417 214.736C109.049 215.408 108.549 215.968 107.917 216.416C107.285 216.864 106.561 217.2 105.745 217.424C104.937 217.648 104.089 217.76 103.201 217.76ZM117.438 217.772C116.478 217.772 115.686 217.612 115.062 217.292C114.438 216.972 113.942 216.564 113.574 216.068C113.206 215.572 112.934 215.044 112.758 214.484C112.582 213.924 112.466 213.396 112.41 212.9C112.362 212.396 112.338 211.988 112.338 211.676V204.44H115.266V210.68C115.266 211.08 115.294 211.532 115.35 212.036C115.406 212.532 115.534 213.012 115.734 213.476C115.942 213.932 116.246 214.308 116.646 214.604C117.054 214.9 117.602 215.048 118.29 215.048C118.658 215.048 119.022 214.988 119.382 214.868C119.742 214.748 120.066 214.544 120.354 214.256C120.65 213.96 120.886 213.556 121.062 213.044C121.238 212.532 121.326 211.884 121.326 211.1L123.042 211.832C123.042 212.936 122.826 213.936 122.394 214.832C121.97 215.728 121.342 216.444 120.51 216.98C119.678 217.508 118.654 217.772 117.438 217.772ZM121.674 217.4V213.38H121.326V204.44H124.23V217.4H121.674ZM133.83 217.76C132.566 217.76 131.506 217.46 130.65 216.86C129.794 216.26 129.15 215.444 128.718 214.412C128.286 213.372 128.07 212.208 128.07 210.92C128.07 209.616 128.286 208.448 128.718 207.416C129.15 206.384 129.782 205.572 130.614 204.98C131.454 204.38 132.49 204.08 133.722 204.08C134.946 204.08 136.006 204.38 136.902 204.98C137.806 205.572 138.506 206.384 139.002 207.416C139.498 208.44 139.746 209.608 139.746 210.92C139.746 212.216 139.502 213.38 139.014 214.412C138.526 215.444 137.838 216.26 136.95 216.86C136.062 217.46 135.022 217.76 133.83 217.76ZM127.578 217.4V200.12H130.494V208.304H130.134V217.4H127.578ZM133.386 215.168C134.138 215.168 134.758 214.98 135.246 214.604C135.734 214.228 136.094 213.72 136.326 213.08C136.566 212.432 136.686 211.712 136.686 210.92C136.686 210.136 136.566 209.424 136.326 208.784C136.086 208.136 135.714 207.624 135.21 207.248C134.706 206.864 134.066 206.672 133.29 206.672C132.554 206.672 131.954 206.852 131.49 207.212C131.026 207.564 130.682 208.06 130.458 208.7C130.242 209.332 130.134 210.072 130.134 210.92C130.134 211.76 130.242 212.5 130.458 213.14C130.682 213.78 131.03 214.28 131.502 214.64C131.982 214.992 132.61 215.168 133.386 215.168ZM157.955 217.4V209.528C157.955 208.64 157.735 207.948 157.295 207.452C156.855 206.948 156.259 206.696 155.507 206.696C155.043 206.696 154.627 206.804 154.259 207.02C153.891 207.228 153.599 207.54 153.383 207.956C153.167 208.364 153.059 208.852 153.059 209.42L151.775 208.664C151.767 207.768 151.967 206.98 152.375 206.3C152.791 205.612 153.351 205.076 154.055 204.692C154.759 204.308 155.543 204.116 156.407 204.116C157.839 204.116 158.935 204.548 159.695 205.412C160.463 206.268 160.847 207.396 160.847 208.796V217.4H157.955ZM142.367 217.4V204.44H144.923V208.46H145.283V217.4H142.367ZM150.179 217.4V209.564C150.179 208.66 149.959 207.956 149.519 207.452C149.079 206.948 148.479 206.696 147.719 206.696C146.983 206.696 146.391 206.948 145.943 207.452C145.503 207.956 145.283 208.612 145.283 209.42L143.987 208.556C143.987 207.716 144.195 206.96 144.611 206.288C145.027 205.616 145.587 205.088 146.291 204.704C147.003 204.312 147.799 204.116 148.679 204.116C149.647 204.116 150.455 204.324 151.103 204.74C151.759 205.148 152.247 205.708 152.567 206.42C152.895 207.124 153.059 207.92 153.059 208.808V217.4H150.179ZM164.217 202.472V199.82H167.109V202.472H164.217ZM164.217 217.4V204.44H167.109V217.4H164.217ZM178.299 217.4C177.443 217.56 176.603 217.628 175.779 217.604C174.963 217.588 174.231 217.44 173.583 217.16C172.935 216.872 172.443 216.42 172.107 215.804C171.811 215.244 171.655 214.672 171.639 214.088C171.623 213.504 171.615 212.844 171.615 212.108V200.84H174.495V211.94C174.495 212.46 174.499 212.916 174.507 213.308C174.523 213.7 174.607 214.02 174.759 214.268C175.047 214.748 175.507 215.016 176.139 215.072C176.771 215.128 177.491 215.096 178.299 214.976V217.4ZM169.263 206.708V204.44H178.299V206.708H169.263ZM185.891 217.4V200.12H196.295V203.012H188.783V207.32H194.855V210.2H188.783V217.4H185.891ZM203.994 217.76C202.682 217.76 201.53 217.476 200.538 216.908C199.546 216.34 198.77 215.552 198.21 214.544C197.658 213.536 197.382 212.376 197.382 211.064C197.382 209.648 197.654 208.42 198.198 207.38C198.742 206.332 199.498 205.52 200.466 204.944C201.434 204.368 202.554 204.08 203.826 204.08C205.17 204.08 206.31 204.396 207.246 205.028C208.19 205.652 208.89 206.536 209.346 207.68C209.802 208.824 209.974 210.172 209.862 211.724H206.994V210.668C206.986 209.26 206.738 208.232 206.25 207.584C205.762 206.936 204.994 206.612 203.946 206.612C202.762 206.612 201.882 206.98 201.306 207.716C200.73 208.444 200.442 209.512 200.442 210.92C200.442 212.232 200.73 213.248 201.306 213.968C201.882 214.688 202.722 215.048 203.826 215.048C204.538 215.048 205.15 214.892 205.662 214.58C206.182 214.26 206.582 213.8 206.862 213.2L209.718 214.064C209.222 215.232 208.454 216.14 207.414 216.788C206.382 217.436 205.242 217.76 203.994 217.76ZM199.53 211.724V209.54H208.446V211.724H199.53ZM218.431 217.76C217.119 217.76 215.967 217.476 214.975 216.908C213.983 216.34 213.207 215.552 212.647 214.544C212.095 213.536 211.819 212.376 211.819 211.064C211.819 209.648 212.091 208.42 212.635 207.38C213.179 206.332 213.935 205.52 214.903 204.944C215.871 204.368 216.991 204.08 218.263 204.08C219.607 204.08 220.747 204.396 221.683 205.028C222.627 205.652 223.327 206.536 223.783 207.68C224.239 208.824 224.411 210.172 224.299 211.724H221.431V210.668C221.423 209.26 221.175 208.232 220.687 207.584C220.199 206.936 219.431 206.612 218.383 206.612C217.199 206.612 216.319 206.98 215.743 207.716C215.167 208.444 214.879 209.512 214.879 210.92C214.879 212.232 215.167 213.248 215.743 213.968C216.319 214.688 217.159 215.048 218.263 215.048C218.975 215.048 219.587 214.892 220.099 214.58C220.619 214.26 221.019 213.8 221.299 213.2L224.155 214.064C223.659 215.232 222.891 216.14 221.851 216.788C220.819 217.436 219.679 217.76 218.431 217.76ZM213.967 211.724V209.54H222.883V211.724H213.967ZM232.173 217.76C230.981 217.76 229.941 217.46 229.053 216.86C228.165 216.26 227.477 215.444 226.989 214.412C226.501 213.38 226.257 212.216 226.257 210.92C226.257 209.608 226.501 208.44 226.989 207.416C227.485 206.384 228.185 205.572 229.089 204.98C229.993 204.38 231.057 204.08 232.281 204.08C233.513 204.08 234.545 204.38 235.377 204.98C236.217 205.572 236.853 206.384 237.285 207.416C237.717 208.448 237.933 209.616 237.933 210.92C237.933 212.208 237.717 213.372 237.285 214.412C236.853 215.444 236.209 216.26 235.353 216.86C234.497 217.46 233.437 217.76 232.173 217.76ZM232.617 215.168C233.393 215.168 234.017 214.992 234.489 214.64C234.969 214.28 235.317 213.78 235.533 213.14C235.757 212.5 235.869 211.76 235.869 210.92C235.869 210.072 235.757 209.332 235.533 208.7C235.317 208.06 234.977 207.564 234.513 207.212C234.049 206.852 233.449 206.672 232.713 206.672C231.937 206.672 231.297 206.864 230.793 207.248C230.289 207.624 229.917 208.136 229.677 208.784C229.437 209.424 229.317 210.136 229.317 210.92C229.317 211.712 229.433 212.432 229.665 213.08C229.905 213.72 230.269 214.228 230.757 214.604C231.245 214.98 231.865 215.168 232.617 215.168ZM235.869 217.4V208.304H235.509V200.12H238.425V217.4H235.869ZM248.017 217.76C246.753 217.76 245.693 217.46 244.837 216.86C243.981 216.26 243.337 215.444 242.905 214.412C242.473 213.372 242.257 212.208 242.257 210.92C242.257 209.616 242.473 208.448 242.905 207.416C243.337 206.384 243.969 205.572 244.801 204.98C245.641 204.38 246.677 204.08 247.909 204.08C249.133 204.08 250.193 204.38 251.089 204.98C251.993 205.572 252.693 206.384 253.189 207.416C253.685 208.44 253.933 209.608 253.933 210.92C253.933 212.216 253.689 213.38 253.201 214.412C252.713 215.444 252.025 216.26 251.137 216.86C250.249 217.46 249.209 217.76 248.017 217.76ZM241.765 217.4V200.12H244.681V208.304H244.321V217.4H241.765ZM247.573 215.168C248.325 215.168 248.945 214.98 249.433 214.604C249.921 214.228 250.281 213.72 250.513 213.08C250.753 212.432 250.873 211.712 250.873 210.92C250.873 210.136 250.753 209.424 250.513 208.784C250.273 208.136 249.901 207.624 249.397 207.248C248.893 206.864 248.253 206.672 247.477 206.672C246.741 206.672 246.141 206.852 245.677 207.212C245.213 207.564 244.869 208.06 244.645 208.7C244.429 209.332 244.321 210.072 244.321 210.92C244.321 211.76 244.429 212.5 244.645 213.14C244.869 213.78 245.217 214.28 245.689 214.64C246.169 214.992 246.797 215.168 247.573 215.168ZM260.202 217.76C259.266 217.76 258.474 217.584 257.826 217.232C257.178 216.872 256.686 216.396 256.35 215.804C256.022 215.212 255.858 214.56 255.858 213.848C255.858 213.224 255.962 212.664 256.17 212.168C256.378 211.664 256.698 211.232 257.13 210.872C257.562 210.504 258.122 210.204 258.81 209.972C259.33 209.804 259.938 209.652 260.634 209.516C261.338 209.38 262.098 209.256 262.914 209.144C263.738 209.024 264.598 208.896 265.494 208.76L264.462 209.348C264.47 208.452 264.27 207.792 263.862 207.368C263.454 206.944 262.766 206.732 261.798 206.732C261.214 206.732 260.65 206.868 260.106 207.14C259.562 207.412 259.182 207.88 258.966 208.544L256.326 207.716C256.646 206.62 257.254 205.74 258.15 205.076C259.054 204.412 260.27 204.08 261.798 204.08C262.95 204.08 263.962 204.268 264.834 204.644C265.714 205.02 266.366 205.636 266.79 206.492C267.022 206.948 267.162 207.416 267.21 207.896C267.258 208.368 267.282 208.884 267.282 209.444V217.4H264.75V214.592L265.17 215.048C264.586 215.984 263.902 216.672 263.118 217.112C262.342 217.544 261.37 217.76 260.202 217.76ZM260.778 215.456C261.434 215.456 261.994 215.34 262.458 215.108C262.922 214.876 263.29 214.592 263.562 214.256C263.842 213.92 264.03 213.604 264.126 213.308C264.278 212.94 264.362 212.52 264.378 212.048C264.402 211.568 264.414 211.18 264.414 210.884L265.302 211.148C264.43 211.284 263.682 211.404 263.058 211.508C262.434 211.612 261.898 211.712 261.45 211.808C261.002 211.896 260.606 211.996 260.262 212.108C259.926 212.228 259.642 212.368 259.41 212.528C259.178 212.688 258.998 212.872 258.87 213.08C258.75 213.288 258.69 213.532 258.69 213.812C258.69 214.132 258.77 214.416 258.93 214.664C259.09 214.904 259.322 215.096 259.626 215.24C259.938 215.384 260.322 215.456 260.778 215.456ZM276.035 217.76C274.699 217.76 273.559 217.464 272.615 216.872C271.671 216.272 270.947 215.456 270.443 214.424C269.947 213.392 269.695 212.224 269.687 210.92C269.695 209.592 269.955 208.416 270.467 207.392C270.987 206.36 271.723 205.552 272.675 204.968C273.627 204.376 274.759 204.08 276.071 204.08C277.543 204.08 278.787 204.452 279.803 205.196C280.827 205.932 281.495 206.94 281.807 208.22L278.927 209C278.703 208.304 278.331 207.764 277.811 207.38C277.291 206.988 276.699 206.792 276.035 206.792C275.283 206.792 274.663 206.972 274.175 207.332C273.687 207.684 273.327 208.172 273.095 208.796C272.863 209.42 272.747 210.128 272.747 210.92C272.747 212.152 273.023 213.148 273.575 213.908C274.127 214.668 274.947 215.048 276.035 215.048C276.803 215.048 277.407 214.872 277.847 214.52C278.295 214.168 278.631 213.66 278.855 212.996L281.807 213.656C281.407 214.976 280.707 215.992 279.707 216.704C278.707 217.408 277.483 217.76 276.035 217.76ZM284.187 217.4L284.211 200.12H287.139V210.68L291.879 204.44H295.491L290.463 210.92L295.923 217.4H292.095L287.139 211.16V217.4H284.187ZM303.058 217.4V204.236C303.058 203.908 303.07 203.548 303.094 203.156C303.118 202.756 303.186 202.36 303.298 201.968C303.41 201.576 303.614 201.22 303.91 200.9C304.278 200.492 304.674 200.212 305.098 200.06C305.53 199.9 305.954 199.812 306.37 199.796C306.786 199.772 307.15 199.76 307.462 199.76H309.082V202.112H307.582C307.03 202.112 306.618 202.252 306.346 202.532C306.082 202.804 305.95 203.164 305.95 203.612V217.4H303.058ZM300.97 206.708V204.44H309.082V206.708H300.97ZM316.256 217.76C314.96 217.76 313.828 217.468 312.86 216.884C311.892 216.3 311.14 215.496 310.604 214.472C310.076 213.44 309.812 212.256 309.812 210.92C309.812 209.56 310.084 208.368 310.628 207.344C311.172 206.32 311.928 205.52 312.896 204.944C313.864 204.368 314.984 204.08 316.256 204.08C317.56 204.08 318.696 204.372 319.664 204.956C320.632 205.54 321.384 206.348 321.92 207.38C322.456 208.404 322.724 209.584 322.724 210.92C322.724 212.264 322.452 213.452 321.908 214.484C321.372 215.508 320.62 216.312 319.652 216.896C318.684 217.472 317.552 217.76 316.256 217.76ZM316.256 215.048C317.408 215.048 318.264 214.664 318.824 213.896C319.384 213.128 319.664 212.136 319.664 210.92C319.664 209.664 319.38 208.664 318.812 207.92C318.244 207.168 317.392 206.792 316.256 206.792C315.48 206.792 314.84 206.968 314.336 207.32C313.84 207.664 313.472 208.148 313.232 208.772C312.992 209.388 312.872 210.104 312.872 210.92C312.872 212.176 313.156 213.18 313.724 213.932C314.3 214.676 315.144 215.048 316.256 215.048ZM325.368 217.4V204.44H327.924V207.596L327.612 207.188C327.772 206.756 327.984 206.364 328.248 206.012C328.52 205.652 328.844 205.356 329.22 205.124C329.54 204.908 329.892 204.74 330.276 204.62C330.668 204.492 331.068 204.416 331.476 204.392C331.884 204.36 332.28 204.376 332.664 204.44V207.14C332.28 207.028 331.836 206.992 331.332 207.032C330.836 207.072 330.388 207.212 329.988 207.452C329.588 207.668 329.26 207.944 329.004 208.28C328.756 208.616 328.572 209 328.452 209.432C328.332 209.856 328.272 210.316 328.272 210.812V217.4H325.368ZM346.154 217.76C344.89 217.76 343.75 217.54 342.734 217.1C341.726 216.66 340.894 216.032 340.238 215.216C339.59 214.392 339.178 213.416 339.002 212.288L342.002 211.832C342.258 212.856 342.782 213.648 343.574 214.208C344.374 214.768 345.294 215.048 346.334 215.048C346.95 215.048 347.53 214.952 348.074 214.76C348.618 214.568 349.058 214.288 349.394 213.92C349.738 213.552 349.91 213.1 349.91 212.564C349.91 212.324 349.87 212.104 349.79 211.904C349.71 211.696 349.59 211.512 349.43 211.352C349.278 211.192 349.078 211.048 348.83 210.92C348.59 210.784 348.31 210.668 347.99 210.572L343.526 209.252C343.142 209.14 342.726 208.992 342.278 208.808C341.838 208.616 341.418 208.356 341.018 208.028C340.626 207.692 340.302 207.268 340.046 206.756C339.798 206.236 339.674 205.596 339.674 204.836C339.674 203.724 339.954 202.792 340.514 202.04C341.082 201.28 341.842 200.712 342.794 200.336C343.754 199.96 344.818 199.776 345.986 199.784C347.17 199.792 348.226 199.996 349.154 200.396C350.082 200.788 350.858 201.36 351.482 202.112C352.106 202.864 352.546 203.772 352.802 204.836L349.694 205.376C349.566 204.768 349.318 204.252 348.95 203.828C348.59 203.396 348.146 203.068 347.618 202.844C347.098 202.62 346.542 202.5 345.95 202.484C345.374 202.476 344.838 202.564 344.342 202.748C343.854 202.924 343.458 203.18 343.154 203.516C342.858 203.852 342.71 204.244 342.71 204.692C342.71 205.116 342.838 205.464 343.094 205.736C343.35 206 343.666 206.212 344.042 206.372C344.426 206.524 344.814 206.652 345.206 206.756L348.302 207.62C348.726 207.732 349.202 207.884 349.73 208.076C350.258 208.268 350.766 208.536 351.254 208.88C351.742 209.224 352.142 209.676 352.454 210.236C352.774 210.796 352.934 211.508 352.934 212.372C352.934 213.268 352.746 214.056 352.37 214.736C352.002 215.408 351.502 215.968 350.87 216.416C350.238 216.864 349.514 217.2 348.698 217.424C347.89 217.648 347.042 217.76 346.154 217.76ZM360.392 217.772C359.432 217.772 358.64 217.612 358.016 217.292C357.392 216.972 356.896 216.564 356.528 216.068C356.16 215.572 355.888 215.044 355.712 214.484C355.536 213.924 355.42 213.396 355.364 212.9C355.316 212.396 355.292 211.988 355.292 211.676V204.44H358.22V210.68C358.22 211.08 358.248 211.532 358.304 212.036C358.36 212.532 358.488 213.012 358.688 213.476C358.896 213.932 359.2 214.308 359.6 214.604C360.008 214.9 360.556 215.048 361.244 215.048C361.612 215.048 361.976 214.988 362.336 214.868C362.696 214.748 363.02 214.544 363.308 214.256C363.604 213.96 363.84 213.556 364.016 213.044C364.192 212.532 364.28 211.884 364.28 211.1L365.996 211.832C365.996 212.936 365.78 213.936 365.348 214.832C364.924 215.728 364.296 216.444 363.464 216.98C362.632 217.508 361.608 217.772 360.392 217.772ZM364.628 217.4V213.38H364.28V204.44H367.184V217.4H364.628ZM376.783 217.76C375.519 217.76 374.459 217.46 373.603 216.86C372.747 216.26 372.103 215.444 371.671 214.412C371.239 213.372 371.023 212.208 371.023 210.92C371.023 209.616 371.239 208.448 371.671 207.416C372.103 206.384 372.735 205.572 373.567 204.98C374.407 204.38 375.443 204.08 376.675 204.08C377.899 204.08 378.959 204.38 379.855 204.98C380.759 205.572 381.459 206.384 381.955 207.416C382.451 208.44 382.699 209.608 382.699 210.92C382.699 212.216 382.455 213.38 381.967 214.412C381.479 215.444 380.791 216.26 379.903 216.86C379.015 217.46 377.975 217.76 376.783 217.76ZM370.531 223.16V204.44H373.087V213.536H373.447V223.16H370.531ZM376.339 215.168C377.091 215.168 377.711 214.98 378.199 214.604C378.687 214.228 379.047 213.72 379.279 213.08C379.519 212.432 379.639 211.712 379.639 210.92C379.639 210.136 379.519 209.424 379.279 208.784C379.039 208.136 378.667 207.624 378.163 207.248C377.659 206.864 377.019 206.672 376.243 206.672C375.507 206.672 374.907 206.852 374.443 207.212C373.979 207.564 373.635 208.06 373.411 208.7C373.195 209.332 373.087 210.072 373.087 210.92C373.087 211.76 373.195 212.5 373.411 213.14C373.635 213.78 373.983 214.28 374.455 214.64C374.935 214.992 375.563 215.168 376.339 215.168ZM391.572 217.76C390.308 217.76 389.248 217.46 388.392 216.86C387.536 216.26 386.892 215.444 386.46 214.412C386.028 213.372 385.812 212.208 385.812 210.92C385.812 209.616 386.028 208.448 386.46 207.416C386.892 206.384 387.524 205.572 388.356 204.98C389.196 204.38 390.232 204.08 391.464 204.08C392.688 204.08 393.748 204.38 394.644 204.98C395.548 205.572 396.248 206.384 396.744 207.416C397.24 208.44 397.488 209.608 397.488 210.92C397.488 212.216 397.244 213.38 396.756 214.412C396.268 215.444 395.58 216.26 394.692 216.86C393.804 217.46 392.764 217.76 391.572 217.76ZM385.32 223.16V204.44H387.876V213.536H388.236V223.16H385.32ZM391.128 215.168C391.88 215.168 392.5 214.98 392.988 214.604C393.476 214.228 393.836 213.72 394.068 213.08C394.308 212.432 394.428 211.712 394.428 210.92C394.428 210.136 394.308 209.424 394.068 208.784C393.828 208.136 393.456 207.624 392.952 207.248C392.448 206.864 391.808 206.672 391.032 206.672C390.296 206.672 389.696 206.852 389.232 207.212C388.768 207.564 388.424 208.06 388.2 208.7C387.984 209.332 387.876 210.072 387.876 210.92C387.876 211.76 387.984 212.5 388.2 213.14C388.424 213.78 388.772 214.28 389.244 214.64C389.724 214.992 390.352 215.168 391.128 215.168ZM405.857 217.76C404.561 217.76 403.429 217.468 402.461 216.884C401.493 216.3 400.741 215.496 400.205 214.472C399.677 213.44 399.413 212.256 399.413 210.92C399.413 209.56 399.685 208.368 400.229 207.344C400.773 206.32 401.529 205.52 402.497 204.944C403.465 204.368 404.585 204.08 405.857 204.08C407.161 204.08 408.297 204.372 409.265 204.956C410.233 205.54 410.985 206.348 411.521 207.38C412.057 208.404 412.325 209.584 412.325 210.92C412.325 212.264 412.053 213.452 411.509 214.484C410.973 215.508 410.221 216.312 409.253 216.896C408.285 217.472 407.153 217.76 405.857 217.76ZM405.857 215.048C407.009 215.048 407.865 214.664 408.425 213.896C408.985 213.128 409.265 212.136 409.265 210.92C409.265 209.664 408.981 208.664 408.413 207.92C407.845 207.168 406.993 206.792 405.857 206.792C405.081 206.792 404.441 206.968 403.937 207.32C403.441 207.664 403.073 208.148 402.833 208.772C402.593 209.388 402.473 210.104 402.473 210.92C402.473 212.176 402.757 213.18 403.325 213.932C403.901 214.676 404.745 215.048 405.857 215.048ZM414.969 217.4V204.44H417.525V207.596L417.213 207.188C417.373 206.756 417.585 206.364 417.849 206.012C418.121 205.652 418.445 205.356 418.821 205.124C419.141 204.908 419.493 204.74 419.877 204.62C420.269 204.492 420.669 204.416 421.077 204.392C421.485 204.36 421.881 204.376 422.265 204.44V207.14C421.881 207.028 421.437 206.992 420.933 207.032C420.437 207.072 419.989 207.212 419.589 207.452C419.189 207.668 418.861 207.944 418.605 208.28C418.357 208.616 418.173 209 418.053 209.432C417.933 209.856 417.873 210.316 417.873 210.812V217.4H414.969ZM432.151 217.4C431.295 217.56 430.455 217.628 429.631 217.604C428.815 217.588 428.083 217.44 427.435 217.16C426.787 216.872 426.295 216.42 425.959 215.804C425.663 215.244 425.507 214.672 425.491 214.088C425.475 213.504 425.467 212.844 425.467 212.108V200.84H428.347V211.94C428.347 212.46 428.351 212.916 428.359 213.308C428.375 213.7 428.459 214.02 428.611 214.268C428.899 214.748 429.359 215.016 429.991 215.072C430.623 215.128 431.343 215.096 432.151 214.976V217.4ZM423.115 206.708V204.44H432.151V206.708H423.115ZM443.895 217.4V202.832H438.303V200.12H452.379V202.832H446.787V217.4H443.895ZM454.537 202.472V199.82H457.429V202.472H454.537ZM454.537 217.4V204.44H457.429V217.4H454.537ZM466.652 217.76C465.316 217.76 464.176 217.464 463.232 216.872C462.288 216.272 461.564 215.456 461.06 214.424C460.564 213.392 460.312 212.224 460.304 210.92C460.312 209.592 460.572 208.416 461.084 207.392C461.604 206.36 462.34 205.552 463.292 204.968C464.244 204.376 465.376 204.08 466.688 204.08C468.16 204.08 469.404 204.452 470.42 205.196C471.444 205.932 472.112 206.94 472.424 208.22L469.544 209C469.32 208.304 468.948 207.764 468.428 207.38C467.908 206.988 467.316 206.792 466.652 206.792C465.9 206.792 465.28 206.972 464.792 207.332C464.304 207.684 463.944 208.172 463.712 208.796C463.48 209.42 463.364 210.128 463.364 210.92C463.364 212.152 463.64 213.148 464.192 213.908C464.744 214.668 465.564 215.048 466.652 215.048C467.42 215.048 468.024 214.872 468.464 214.52C468.912 214.168 469.248 213.66 469.472 212.996L472.424 213.656C472.024 214.976 471.324 215.992 470.324 216.704C469.324 217.408 468.1 217.76 466.652 217.76ZM474.804 217.4L474.828 200.12H477.756V210.68L482.496 204.44H486.108L481.08 210.92L486.54 217.4H482.712L477.756 211.16V217.4H474.804ZM493.4 217.76C492.088 217.76 490.936 217.476 489.944 216.908C488.952 216.34 488.176 215.552 487.616 214.544C487.064 213.536 486.788 212.376 486.788 211.064C486.788 209.648 487.06 208.42 487.604 207.38C488.148 206.332 488.904 205.52 489.872 204.944C490.84 204.368 491.96 204.08 493.232 204.08C494.576 204.08 495.716 204.396 496.652 205.028C497.596 205.652 498.296 206.536 498.752 207.68C499.208 208.824 499.38 210.172 499.268 211.724H496.4V210.668C496.392 209.26 496.144 208.232 495.656 207.584C495.168 206.936 494.4 206.612 493.352 206.612C492.168 206.612 491.288 206.98 490.712 207.716C490.136 208.444 489.848 209.512 489.848 210.92C489.848 212.232 490.136 213.248 490.712 213.968C491.288 214.688 492.128 215.048 493.232 215.048C493.944 215.048 494.556 214.892 495.068 214.58C495.588 214.26 495.988 213.8 496.268 213.2L499.124 214.064C498.628 215.232 497.86 216.14 496.82 216.788C495.788 217.436 494.648 217.76 493.4 217.76ZM488.936 211.724V209.54H497.852V211.724H488.936ZM509.542 217.4C508.686 217.56 507.846 217.628 507.022 217.604C506.206 217.588 505.474 217.44 504.826 217.16C504.178 216.872 503.686 216.42 503.35 215.804C503.054 215.244 502.898 214.672 502.882 214.088C502.866 213.504 502.858 212.844 502.858 212.108V200.84H505.738V211.94C505.738 212.46 505.742 212.916 505.75 213.308C505.766 213.7 505.85 214.02 506.002 214.268C506.29 214.748 506.75 215.016 507.382 215.072C508.014 215.128 508.734 215.096 509.542 214.976V217.4ZM500.506 206.708V204.44H509.542V206.708H500.506ZM517.332 217.76C515.732 217.76 514.432 217.4 513.432 216.68C512.432 215.96 511.824 214.948 511.608 213.644L514.56 213.188C514.712 213.828 515.048 214.332 515.568 214.7C516.088 215.068 516.744 215.252 517.536 215.252C518.232 215.252 518.768 215.116 519.144 214.844C519.528 214.564 519.72 214.184 519.72 213.704C519.72 213.408 519.648 213.172 519.504 212.996C519.368 212.812 519.064 212.636 518.592 212.468C518.12 212.3 517.396 212.088 516.42 211.832C515.332 211.544 514.468 211.236 513.828 210.908C513.188 210.572 512.728 210.176 512.448 209.72C512.168 209.264 512.028 208.712 512.028 208.064C512.028 207.256 512.24 206.552 512.664 205.952C513.088 205.352 513.68 204.892 514.44 204.572C515.2 204.244 516.096 204.08 517.128 204.08C518.136 204.08 519.028 204.236 519.804 204.548C520.588 204.86 521.22 205.304 521.7 205.88C522.18 206.456 522.476 207.132 522.588 207.908L519.636 208.436C519.564 207.884 519.312 207.448 518.88 207.128C518.456 206.808 517.888 206.628 517.176 206.588C516.496 206.548 515.948 206.652 515.532 206.9C515.116 207.14 514.908 207.48 514.908 207.92C514.908 208.168 514.992 208.38 515.16 208.556C515.328 208.732 515.664 208.908 516.168 209.084C516.68 209.26 517.44 209.476 518.448 209.732C519.48 209.996 520.304 210.3 520.92 210.644C521.544 210.98 521.992 211.384 522.264 211.856C522.544 212.328 522.684 212.9 522.684 213.572C522.684 214.876 522.208 215.9 521.256 216.644C520.312 217.388 519.004 217.76 517.332 217.76Z" fill="black"/>
<path d="M74.708 270.64C73.892 270.64 73.156 270.501 72.5 270.224C71.8493 269.947 71.3107 269.552 70.884 269.04C70.4627 268.523 70.188 267.912 70.06 267.208L71.532 266.976C71.7187 267.701 72.1053 268.269 72.692 268.68C73.284 269.085 73.98 269.288 74.78 269.288C75.2973 269.288 75.764 269.208 76.18 269.048C76.6013 268.883 76.9347 268.648 77.18 268.344C77.4253 268.04 77.548 267.68 77.548 267.264C77.548 267.008 77.5027 266.789 77.412 266.608C77.3267 266.421 77.2067 266.264 77.052 266.136C76.9027 266.003 76.732 265.891 76.54 265.8C76.348 265.709 76.148 265.635 75.94 265.576L73.004 264.704C72.684 264.608 72.3747 264.488 72.076 264.344C71.7773 264.195 71.5107 264.011 71.276 263.792C71.0413 263.568 70.8547 263.301 70.716 262.992C70.5773 262.677 70.508 262.307 70.508 261.88C70.508 261.197 70.684 260.616 71.036 260.136C71.3933 259.651 71.876 259.28 72.484 259.024C73.092 258.768 73.7773 258.643 74.54 258.648C75.3133 258.653 76.004 258.792 76.612 259.064C77.2253 259.331 77.732 259.715 78.132 260.216C78.5373 260.717 78.8093 261.317 78.948 262.016L77.436 262.28C77.356 261.811 77.1773 261.408 76.9 261.072C76.628 260.731 76.2867 260.469 75.876 260.288C75.4653 260.101 75.0147 260.005 74.524 260C74.0547 259.995 73.6307 260.069 73.252 260.224C72.8733 260.379 72.572 260.595 72.348 260.872C72.124 261.144 72.012 261.459 72.012 261.816C72.012 262.168 72.1133 262.453 72.316 262.672C72.5187 262.885 72.7667 263.056 73.06 263.184C73.3587 263.307 73.6493 263.408 73.932 263.488L76.124 264.12C76.3747 264.189 76.6627 264.285 76.988 264.408C77.3187 264.531 77.6387 264.704 77.948 264.928C78.2573 265.147 78.5133 265.44 78.716 265.808C78.9187 266.171 79.02 266.629 79.02 267.184C79.02 267.739 78.908 268.232 78.684 268.664C78.4653 269.096 78.1587 269.459 77.764 269.752C77.3693 270.04 76.9107 270.259 76.388 270.408C75.8653 270.563 75.3053 270.64 74.708 270.64ZM84.3781 270.64C83.5195 270.64 82.7781 270.445 82.1541 270.056C81.5355 269.667 81.0581 269.128 80.7221 268.44C80.3861 267.752 80.2181 266.963 80.2181 266.072C80.2181 265.165 80.3888 264.371 80.7301 263.688C81.0715 263.005 81.5541 262.475 82.1781 262.096C82.8021 261.712 83.5355 261.52 84.3781 261.52C85.2421 261.52 85.9861 261.715 86.6101 262.104C87.2341 262.488 87.7115 263.024 88.0421 263.712C88.3781 264.395 88.5461 265.181 88.5461 266.072C88.5461 266.973 88.3781 267.768 88.0421 268.456C87.7061 269.139 87.2261 269.675 86.6021 270.064C85.9781 270.448 85.2368 270.64 84.3781 270.64ZM84.3781 269.288C85.2741 269.288 85.9408 268.989 86.3781 268.392C86.8155 267.795 87.0341 267.021 87.0341 266.072C87.0341 265.096 86.8128 264.32 86.3701 263.744C85.9275 263.163 85.2635 262.872 84.3781 262.872C83.7755 262.872 83.2795 263.008 82.8901 263.28C82.5008 263.552 82.2101 263.928 82.0181 264.408C81.8261 264.888 81.7301 265.443 81.7301 266.072C81.7301 267.043 81.9541 267.821 82.4021 268.408C82.8501 268.995 83.5088 269.288 84.3781 269.288ZM91.1315 270.4V261.288C91.1315 261.064 91.1422 260.837 91.1635 260.608C91.1848 260.373 91.2328 260.147 91.3075 259.928C91.3822 259.704 91.5048 259.499 91.6755 259.312C91.8728 259.093 92.0888 258.939 92.3235 258.848C92.5582 258.752 92.7955 258.693 93.0355 258.672C93.2808 258.651 93.5128 258.64 93.7315 258.64H94.8275V259.824H93.8115C93.3902 259.824 93.0755 259.928 92.8675 260.136C92.6595 260.339 92.5555 260.648 92.5555 261.064V270.4H91.1315ZM89.6675 262.936V261.76H94.8275V262.936H89.6675ZM100.928 270.4C100.416 270.501 99.9097 270.541 99.4084 270.52C98.9124 270.504 98.4697 270.405 98.0804 270.224C97.691 270.037 97.395 269.749 97.1924 269.36C97.0217 269.019 96.9284 268.675 96.9124 268.328C96.9017 267.976 96.8964 267.579 96.8964 267.136V259.36H98.3204V267.072C98.3204 267.424 98.323 267.725 98.3284 267.976C98.339 268.227 98.395 268.443 98.4964 268.624C98.6884 268.965 98.9924 269.165 99.4084 269.224C99.8297 269.283 100.336 269.267 100.928 269.176V270.4ZM95.1444 262.936V261.76H100.928V262.936H95.1444ZM104.523 270.4L101.883 261.752L103.299 261.76L105.227 268.08L107.171 261.76H108.427L110.363 268.08L112.299 261.76H113.707L111.067 270.4H109.883L107.795 263.832L105.707 270.4H104.523ZM118.431 270.624C117.877 270.624 117.399 270.536 116.999 270.36C116.605 270.184 116.277 269.949 116.015 269.656C115.754 269.363 115.549 269.037 115.399 268.68C115.25 268.323 115.143 267.957 115.079 267.584C115.021 267.211 114.991 266.861 114.991 266.536V261.76H116.431V266.088C116.431 266.493 116.469 266.885 116.543 267.264C116.618 267.643 116.743 267.984 116.919 268.288C117.101 268.592 117.341 268.832 117.639 269.008C117.943 269.184 118.322 269.272 118.775 269.272C119.133 269.272 119.458 269.211 119.751 269.088C120.045 268.965 120.295 268.784 120.503 268.544C120.711 268.299 120.871 267.989 120.983 267.616C121.095 267.243 121.151 266.808 121.151 266.312L122.087 266.6C122.087 267.432 121.935 268.149 121.631 268.752C121.333 269.355 120.909 269.819 120.359 270.144C119.815 270.464 119.173 270.624 118.431 270.624ZM121.311 270.4V268.088H121.151V261.76H122.583V270.4H121.311ZM124.823 270.4V261.76H126.095V263.848L125.887 263.576C125.988 263.309 126.119 263.064 126.279 262.84C126.444 262.616 126.628 262.432 126.831 262.288C127.055 262.107 127.308 261.968 127.591 261.872C127.874 261.776 128.162 261.72 128.455 261.704C128.748 261.683 129.023 261.701 129.279 261.76V263.096C128.98 263.016 128.652 262.995 128.295 263.032C127.938 263.069 127.607 263.2 127.303 263.424C127.026 263.621 126.81 263.861 126.655 264.144C126.506 264.427 126.402 264.733 126.343 265.064C126.284 265.389 126.255 265.723 126.255 266.064V270.4H124.823ZM130.784 270.4L130.792 258.88H132.232V265.92L135.856 261.76H137.704L133.888 266.08L138.152 270.4H136.16L132.232 266.24V270.4H130.784Z" fill="#295E6A"/>
<line x1="194" y1="254.4" x2="194" y2="274.4" stroke="black" stroke-opacity="0.29"/>
<path d="M226.388 258.648C227.124 258.648 227.788 258.824 228.38 259.176C228.972 259.528 229.441 260.008 229.788 260.616C230.14 261.224 230.316 261.915 230.316 262.688V266.52C230.316 267.325 230.143 268.037 229.796 268.656C229.449 269.275 228.969 269.76 228.356 270.112C227.748 270.464 227.049 270.64 226.26 270.64C225.631 270.64 225.041 270.509 224.492 270.248C223.948 269.987 223.487 269.616 223.108 269.136L224.172 268.192C224.407 268.523 224.708 268.789 225.076 268.992C225.444 269.189 225.839 269.288 226.26 269.288C226.772 269.288 227.223 269.165 227.612 268.92C228.007 268.675 228.313 268.355 228.532 267.96C228.756 267.565 228.868 267.139 228.868 266.68V264.368L229.18 264.72C228.849 265.2 228.425 265.584 227.908 265.872C227.391 266.16 226.828 266.304 226.22 266.304C225.505 266.304 224.865 266.136 224.3 265.8C223.735 265.464 223.287 265.011 222.956 264.44C222.625 263.864 222.46 263.219 222.46 262.504C222.46 261.789 222.639 261.141 222.996 260.56C223.353 259.973 223.828 259.509 224.42 259.168C225.017 258.821 225.673 258.648 226.388 258.648ZM226.388 260.024C225.929 260.024 225.511 260.136 225.132 260.36C224.759 260.579 224.46 260.877 224.236 261.256C224.012 261.629 223.9 262.045 223.9 262.504C223.9 262.963 224.009 263.381 224.228 263.76C224.452 264.133 224.751 264.432 225.124 264.656C225.503 264.88 225.921 264.992 226.38 264.992C226.839 264.992 227.257 264.88 227.636 264.656C228.015 264.432 228.313 264.133 228.532 263.76C228.756 263.381 228.868 262.963 228.868 262.504C228.868 262.051 228.756 261.637 228.532 261.264C228.313 260.885 228.015 260.584 227.636 260.36C227.263 260.136 226.847 260.024 226.388 260.024ZM239.849 270.64C239.033 270.64 238.297 270.501 237.641 270.224C236.99 269.947 236.451 269.552 236.025 269.04C235.603 268.523 235.329 267.912 235.201 267.208L236.673 266.976C236.859 267.701 237.246 268.269 237.833 268.68C238.425 269.085 239.121 269.288 239.921 269.288C240.438 269.288 240.905 269.208 241.321 269.048C241.742 268.883 242.075 268.648 242.321 268.344C242.566 268.04 242.689 267.68 242.689 267.264C242.689 267.008 242.643 266.789 242.553 266.608C242.467 266.421 242.347 266.264 242.193 266.136C242.043 266.003 241.873 265.891 241.681 265.8C241.489 265.709 241.289 265.635 241.081 265.576L238.145 264.704C237.825 264.608 237.515 264.488 237.217 264.344C236.918 264.195 236.651 264.011 236.417 263.792C236.182 263.568 235.995 263.301 235.857 262.992C235.718 262.677 235.649 262.307 235.649 261.88C235.649 261.197 235.825 260.616 236.177 260.136C236.534 259.651 237.017 259.28 237.625 259.024C238.233 258.768 238.918 258.643 239.681 258.648C240.454 258.653 241.145 258.792 241.753 259.064C242.366 259.331 242.873 259.715 243.273 260.216C243.678 260.717 243.95 261.317 244.089 262.016L242.577 262.28C242.497 261.811 242.318 261.408 242.041 261.072C241.769 260.731 241.427 260.469 241.017 260.288C240.606 260.101 240.155 260.005 239.665 260C239.195 259.995 238.771 260.069 238.393 260.224C238.014 260.379 237.713 260.595 237.489 260.872C237.265 261.144 237.153 261.459 237.153 261.816C237.153 262.168 237.254 262.453 237.457 262.672C237.659 262.885 237.907 263.056 238.201 263.184C238.499 263.307 238.79 263.408 239.073 263.488L241.265 264.12C241.515 264.189 241.803 264.285 242.129 264.408C242.459 264.531 242.779 264.704 243.089 264.928C243.398 265.147 243.654 265.44 243.857 265.808C244.059 266.171 244.161 266.629 244.161 267.184C244.161 267.739 244.049 268.232 243.825 268.664C243.606 269.096 243.299 269.459 242.905 269.752C242.51 270.04 242.051 270.259 241.529 270.408C241.006 270.563 240.446 270.64 239.849 270.64ZM250.663 270.4C250.151 270.501 249.644 270.541 249.143 270.52C248.647 270.504 248.204 270.405 247.815 270.224C247.425 270.037 247.129 269.749 246.927 269.36C246.756 269.019 246.663 268.675 246.647 268.328C246.636 267.976 246.631 267.579 246.631 267.136V259.36H248.055V267.072C248.055 267.424 248.057 267.725 248.063 267.976C248.073 268.227 248.129 268.443 248.231 268.624C248.423 268.965 248.727 269.165 249.143 269.224C249.564 269.283 250.071 269.267 250.663 269.176V270.4ZM244.879 262.936V261.76H250.663V262.936H244.879ZM255.802 270.64C254.954 270.64 254.212 270.453 253.578 270.08C252.948 269.701 252.458 269.176 252.106 268.504C251.754 267.827 251.578 267.037 251.578 266.136C251.578 265.192 251.751 264.376 252.098 263.688C252.444 262.995 252.927 262.461 253.546 262.088C254.17 261.709 254.9 261.52 255.738 261.52C256.607 261.52 257.346 261.72 257.954 262.12C258.567 262.52 259.026 263.091 259.33 263.832C259.639 264.573 259.772 265.456 259.73 266.48H258.29V265.968C258.274 264.907 258.058 264.115 257.642 263.592C257.226 263.064 256.607 262.8 255.786 262.8C254.906 262.8 254.236 263.083 253.778 263.648C253.319 264.213 253.09 265.024 253.09 266.08C253.09 267.099 253.319 267.888 253.778 268.448C254.236 269.008 254.89 269.288 255.738 269.288C256.308 269.288 256.804 269.157 257.226 268.896C257.647 268.635 257.978 268.259 258.218 267.768L259.586 268.24C259.25 269.003 258.743 269.595 258.066 270.016C257.394 270.432 256.639 270.64 255.802 270.64ZM252.61 266.48V265.336H258.994V266.48H252.61ZM265.244 270.64C264.434 270.64 263.751 270.44 263.196 270.04C262.642 269.635 262.22 269.088 261.932 268.4C261.65 267.707 261.508 266.931 261.508 266.072C261.508 265.203 261.65 264.424 261.932 263.736C262.22 263.048 262.642 262.507 263.196 262.112C263.756 261.717 264.442 261.52 265.252 261.52C266.052 261.52 266.74 261.72 267.316 262.12C267.898 262.515 268.343 263.056 268.652 263.744C268.962 264.432 269.116 265.208 269.116 266.072C269.116 266.936 268.962 267.712 268.652 268.4C268.343 269.088 267.898 269.635 267.316 270.04C266.74 270.44 266.05 270.64 265.244 270.64ZM261.268 274.24V261.76H262.54V268.12H262.7V274.24H261.268ZM265.068 269.336C265.639 269.336 266.111 269.192 266.484 268.904C266.858 268.616 267.138 268.227 267.324 267.736C267.511 267.24 267.604 266.685 267.604 266.072C267.604 265.464 267.511 264.915 267.324 264.424C267.143 263.933 266.86 263.544 266.476 263.256C266.098 262.968 265.615 262.824 265.028 262.824C264.468 262.824 264.004 262.963 263.636 263.24C263.268 263.512 262.994 263.893 262.812 264.384C262.631 264.869 262.54 265.432 262.54 266.072C262.54 266.701 262.628 267.264 262.804 267.76C262.986 268.251 263.263 268.637 263.636 268.92C264.01 269.197 264.487 269.336 265.068 269.336ZM274.009 270.632C272.98 270.632 272.134 270.408 271.473 269.96C270.817 269.507 270.414 268.875 270.265 268.064L271.721 267.832C271.838 268.301 272.108 268.675 272.529 268.952C272.95 269.224 273.473 269.36 274.097 269.36C274.689 269.36 275.153 269.237 275.489 268.992C275.825 268.747 275.993 268.413 275.993 267.992C275.993 267.747 275.937 267.549 275.825 267.4C275.713 267.245 275.481 267.101 275.129 266.968C274.782 266.835 274.257 266.675 273.553 266.488C272.79 266.285 272.19 266.075 271.753 265.856C271.316 265.637 271.004 265.384 270.817 265.096C270.63 264.808 270.537 264.459 270.537 264.048C270.537 263.541 270.676 263.099 270.953 262.72C271.23 262.336 271.617 262.04 272.113 261.832C272.614 261.624 273.196 261.52 273.857 261.52C274.513 261.52 275.1 261.624 275.617 261.832C276.134 262.04 276.55 262.336 276.865 262.72C277.185 263.099 277.374 263.541 277.433 264.048L275.977 264.312C275.908 263.848 275.684 263.483 275.305 263.216C274.932 262.949 274.449 262.808 273.857 262.792C273.297 262.771 272.841 262.869 272.489 263.088C272.142 263.307 271.969 263.603 271.969 263.976C271.969 264.184 272.033 264.363 272.161 264.512C272.294 264.661 272.537 264.803 272.889 264.936C273.246 265.069 273.764 265.221 274.441 265.392C275.204 265.584 275.804 265.795 276.241 266.024C276.684 266.248 276.998 266.515 277.185 266.824C277.372 267.128 277.465 267.504 277.465 267.952C277.465 268.784 277.158 269.44 276.545 269.92C275.932 270.395 275.086 270.632 274.009 270.632Z" fill="#295E6A"/>
<line x1="326" y1="254.4" x2="326" y2="274.4" stroke="black" stroke-opacity="0.29"/>
<path d="M356.628 270.4V260.456L354.46 261.768V260.176L356.628 258.88H358.076V270.4H356.628ZM364.888 258.648C365.624 258.648 366.288 258.824 366.88 259.176C367.472 259.528 367.941 260.008 368.288 260.616C368.64 261.224 368.816 261.915 368.816 262.688V266.52C368.816 267.325 368.643 268.037 368.296 268.656C367.949 269.275 367.469 269.76 366.856 270.112C366.248 270.464 365.549 270.64 364.76 270.64C364.131 270.64 363.541 270.509 362.992 270.248C362.448 269.987 361.987 269.616 361.608 269.136L362.672 268.192C362.907 268.523 363.208 268.789 363.576 268.992C363.944 269.189 364.339 269.288 364.76 269.288C365.272 269.288 365.723 269.165 366.112 268.92C366.507 268.675 366.813 268.355 367.032 267.96C367.256 267.565 367.368 267.139 367.368 266.68V264.368L367.68 264.72C367.349 265.2 366.925 265.584 366.408 265.872C365.891 266.16 365.328 266.304 364.72 266.304C364.005 266.304 363.365 266.136 362.8 265.8C362.235 265.464 361.787 265.011 361.456 264.44C361.125 263.864 360.96 263.219 360.96 262.504C360.96 261.789 361.139 261.141 361.496 260.56C361.853 259.973 362.328 259.509 362.92 259.168C363.517 258.821 364.173 258.648 364.888 258.648ZM364.888 260.024C364.429 260.024 364.011 260.136 363.632 260.36C363.259 260.579 362.96 260.877 362.736 261.256C362.512 261.629 362.4 262.045 362.4 262.504C362.4 262.963 362.509 263.381 362.728 263.76C362.952 264.133 363.251 264.432 363.624 264.656C364.003 264.88 364.421 264.992 364.88 264.992C365.339 264.992 365.757 264.88 366.136 264.656C366.515 264.432 366.813 264.133 367.032 263.76C367.256 263.381 367.368 262.963 367.368 262.504C367.368 262.051 367.256 261.637 367.032 261.264C366.813 260.885 366.515 260.584 366.136 260.36C365.763 260.136 365.347 260.024 364.888 260.024ZM378.349 270.64C377.533 270.64 376.797 270.501 376.141 270.224C375.49 269.947 374.951 269.552 374.525 269.04C374.103 268.523 373.829 267.912 373.701 267.208L375.173 266.976C375.359 267.701 375.746 268.269 376.333 268.68C376.925 269.085 377.621 269.288 378.421 269.288C378.938 269.288 379.405 269.208 379.821 269.048C380.242 268.883 380.575 268.648 380.821 268.344C381.066 268.04 381.189 267.68 381.189 267.264C381.189 267.008 381.143 266.789 381.053 266.608C380.967 266.421 380.847 266.264 380.693 266.136C380.543 266.003 380.373 265.891 380.181 265.8C379.989 265.709 379.789 265.635 379.581 265.576L376.645 264.704C376.325 264.608 376.015 264.488 375.717 264.344C375.418 264.195 375.151 264.011 374.917 263.792C374.682 263.568 374.495 263.301 374.357 262.992C374.218 262.677 374.149 262.307 374.149 261.88C374.149 261.197 374.325 260.616 374.677 260.136C375.034 259.651 375.517 259.28 376.125 259.024C376.733 258.768 377.418 258.643 378.181 258.648C378.954 258.653 379.645 258.792 380.253 259.064C380.866 259.331 381.373 259.715 381.773 260.216C382.178 260.717 382.45 261.317 382.589 262.016L381.077 262.28C380.997 261.811 380.818 261.408 380.541 261.072C380.269 260.731 379.927 260.469 379.517 260.288C379.106 260.101 378.655 260.005 378.165 260C377.695 259.995 377.271 260.069 376.893 260.224C376.514 260.379 376.213 260.595 375.989 260.872C375.765 261.144 375.653 261.459 375.653 261.816C375.653 262.168 375.754 262.453 375.957 262.672C376.159 262.885 376.407 263.056 376.701 263.184C376.999 263.307 377.29 263.408 377.573 263.488L379.765 264.12C380.015 264.189 380.303 264.285 380.629 264.408C380.959 264.531 381.279 264.704 381.589 264.928C381.898 265.147 382.154 265.44 382.357 265.808C382.559 266.171 382.661 266.629 382.661 267.184C382.661 267.739 382.549 268.232 382.325 268.664C382.106 269.096 381.799 269.459 381.405 269.752C381.01 270.04 380.551 270.259 380.029 270.408C379.506 270.563 378.946 270.64 378.349 270.64ZM388.083 270.64C387.235 270.64 386.493 270.453 385.859 270.08C385.229 269.701 384.739 269.176 384.387 268.504C384.035 267.827 383.859 267.037 383.859 266.136C383.859 265.192 384.032 264.376 384.379 263.688C384.725 262.995 385.208 262.461 385.827 262.088C386.451 261.709 387.181 261.52 388.019 261.52C388.888 261.52 389.627 261.72 390.235 262.12C390.848 262.52 391.307 263.091 391.611 263.832C391.92 264.573 392.053 265.456 392.011 266.48H390.571V265.968C390.555 264.907 390.339 264.115 389.923 263.592C389.507 263.064 388.888 262.8 388.067 262.8C387.187 262.8 386.517 263.083 386.059 263.648C385.6 264.213 385.371 265.024 385.371 266.08C385.371 267.099 385.6 267.888 386.059 268.448C386.517 269.008 387.171 269.288 388.019 269.288C388.589 269.288 389.085 269.157 389.507 268.896C389.928 268.635 390.259 268.259 390.499 267.768L391.867 268.24C391.531 269.003 391.024 269.595 390.347 270.016C389.675 270.432 388.92 270.64 388.083 270.64ZM384.891 266.48V265.336H391.275V266.48H384.891ZM397.432 270.64C396.557 270.64 395.813 270.445 395.2 270.056C394.592 269.661 394.128 269.12 393.808 268.432C393.488 267.744 393.323 266.96 393.312 266.08C393.323 265.179 393.491 264.387 393.816 263.704C394.147 263.016 394.619 262.48 395.232 262.096C395.845 261.712 396.584 261.52 397.448 261.52C398.36 261.52 399.144 261.744 399.8 262.192C400.461 262.64 400.904 263.253 401.128 264.032L399.72 264.456C399.539 263.955 399.243 263.565 398.832 263.288C398.427 263.011 397.96 262.872 397.432 262.872C396.84 262.872 396.352 263.011 395.968 263.288C395.584 263.56 395.299 263.939 395.112 264.424C394.925 264.904 394.829 265.456 394.824 266.08C394.835 267.04 395.056 267.816 395.488 268.408C395.925 268.995 396.573 269.288 397.432 269.288C397.997 269.288 398.467 269.16 398.84 268.904C399.213 268.643 399.496 268.267 399.688 267.776L401.128 268.152C400.829 268.957 400.363 269.573 399.728 270C399.093 270.427 398.328 270.64 397.432 270.64ZM406.206 270.64C405.348 270.64 404.606 270.445 403.982 270.056C403.364 269.667 402.886 269.128 402.55 268.44C402.214 267.752 402.046 266.963 402.046 266.072C402.046 265.165 402.217 264.371 402.558 263.688C402.9 263.005 403.382 262.475 404.006 262.096C404.63 261.712 405.364 261.52 406.206 261.52C407.07 261.52 407.814 261.715 408.438 262.104C409.062 262.488 409.54 263.024 409.87 263.712C410.206 264.395 410.374 265.181 410.374 266.072C410.374 266.973 410.206 267.768 409.87 268.456C409.534 269.139 409.054 269.675 408.43 270.064C407.806 270.448 407.065 270.64 406.206 270.64ZM406.206 269.288C407.102 269.288 407.769 268.989 408.206 268.392C408.644 267.795 408.862 267.021 408.862 266.072C408.862 265.096 408.641 264.32 408.198 263.744C407.756 263.163 407.092 262.872 406.206 262.872C405.604 262.872 405.108 263.008 404.718 263.28C404.329 263.552 404.038 263.928 403.846 264.408C403.654 264.888 403.558 265.443 403.558 266.072C403.558 267.043 403.782 267.821 404.23 268.408C404.678 268.995 405.337 269.288 406.206 269.288ZM418.288 270.4V266.072C418.288 265.661 418.25 265.267 418.176 264.888C418.106 264.509 417.981 264.171 417.8 263.872C417.624 263.568 417.384 263.328 417.08 263.152C416.781 262.976 416.402 262.888 415.944 262.888C415.586 262.888 415.261 262.949 414.968 263.072C414.68 263.189 414.432 263.371 414.224 263.616C414.016 263.861 413.853 264.171 413.736 264.544C413.624 264.912 413.568 265.347 413.568 265.848L412.632 265.56C412.632 264.723 412.781 264.005 413.08 263.408C413.384 262.805 413.808 262.344 414.352 262.024C414.901 261.699 415.546 261.536 416.288 261.536C416.848 261.536 417.325 261.624 417.72 261.8C418.114 261.976 418.442 262.211 418.704 262.504C418.965 262.792 419.17 263.117 419.32 263.48C419.469 263.837 419.573 264.203 419.632 264.576C419.696 264.944 419.728 265.293 419.728 265.624V270.4H418.288ZM412.128 270.4V261.76H413.408V264.072H413.568V270.4H412.128ZM425.121 270.64C424.316 270.64 423.625 270.44 423.049 270.04C422.473 269.635 422.028 269.088 421.713 268.4C421.404 267.712 421.249 266.936 421.249 266.072C421.249 265.208 421.404 264.432 421.713 263.744C422.028 263.056 422.473 262.515 423.049 262.12C423.625 261.72 424.313 261.52 425.113 261.52C425.929 261.52 426.615 261.717 427.169 262.112C427.724 262.507 428.143 263.048 428.425 263.736C428.713 264.424 428.857 265.203 428.857 266.072C428.857 266.931 428.713 267.707 428.425 268.4C428.143 269.088 427.724 269.635 427.169 270.04C426.615 270.44 425.932 270.64 425.121 270.64ZM425.297 269.336C425.879 269.336 426.356 269.197 426.729 268.92C427.103 268.637 427.377 268.251 427.553 267.76C427.735 267.264 427.825 266.701 427.825 266.072C427.825 265.432 427.735 264.869 427.553 264.384C427.377 263.893 427.105 263.512 426.737 263.24C426.369 262.963 425.903 262.824 425.337 262.824C424.751 262.824 424.265 262.968 423.881 263.256C423.503 263.544 423.22 263.933 423.033 264.424C422.852 264.915 422.761 265.464 422.761 266.072C422.761 266.685 422.855 267.24 423.041 267.736C423.228 268.227 423.508 268.616 423.881 268.904C424.26 269.192 424.732 269.336 425.297 269.336ZM427.825 270.4V264.04H427.665V258.88H429.097V270.4H427.825ZM434.603 270.632C433.573 270.632 432.728 270.408 432.067 269.96C431.411 269.507 431.008 268.875 430.859 268.064L432.315 267.832C432.432 268.301 432.701 268.675 433.123 268.952C433.544 269.224 434.067 269.36 434.691 269.36C435.283 269.36 435.747 269.237 436.083 268.992C436.419 268.747 436.587 268.413 436.587 267.992C436.587 267.747 436.531 267.549 436.419 267.4C436.307 267.245 436.075 267.101 435.723 266.968C435.376 266.835 434.851 266.675 434.147 266.488C433.384 266.285 432.784 266.075 432.347 265.856C431.909 265.637 431.597 265.384 431.411 265.096C431.224 264.808 431.131 264.459 431.131 264.048C431.131 263.541 431.269 263.099 431.547 262.72C431.824 262.336 432.211 262.04 432.707 261.832C433.208 261.624 433.789 261.52 434.451 261.52C435.107 261.52 435.693 261.624 436.211 261.832C436.728 262.04 437.144 262.336 437.459 262.72C437.779 263.099 437.968 263.541 438.027 264.048L436.571 264.312C436.501 263.848 436.277 263.483 435.899 263.216C435.525 262.949 435.043 262.808 434.451 262.792C433.891 262.771 433.435 262.869 433.083 263.088C432.736 263.307 432.563 263.603 432.563 263.976C432.563 264.184 432.627 264.363 432.755 264.512C432.888 264.661 433.131 264.803 433.483 264.936C433.84 265.069 434.357 265.221 435.035 265.392C435.797 265.584 436.397 265.795 436.835 266.024C437.277 266.248 437.592 266.515 437.779 266.824C437.965 267.128 438.059 267.504 438.059 267.952C438.059 268.784 437.752 269.44 437.139 269.92C436.525 270.395 435.68 270.632 434.603 270.632Z" fill="#295E6A"/>
<rect x="175" y="334" width="185" height="62" rx="7" fill="#295E6A"/>
<path d="M220.872 371.24C220.125 371.24 219.424 371.109 218.768 370.848C218.117 370.581 217.544 370.192 217.048 369.68C216.557 369.168 216.173 368.541 215.896 367.8C215.619 367.053 215.48 366.2 215.48 365.24C215.48 363.981 215.715 362.907 216.184 362.016C216.653 361.12 217.296 360.435 218.112 359.96C218.928 359.48 219.848 359.24 220.872 359.24C222.291 359.24 223.413 359.571 224.24 360.232C225.072 360.888 225.635 361.811 225.928 363L223.96 363.312C223.741 362.629 223.384 362.085 222.888 361.68C222.392 361.269 221.76 361.064 220.992 361.064C220.219 361.053 219.576 361.221 219.064 361.568C218.552 361.915 218.165 362.403 217.904 363.032C217.648 363.661 217.52 364.397 217.52 365.24C217.52 366.083 217.648 366.816 217.904 367.44C218.16 368.059 218.544 368.541 219.056 368.888C219.573 369.235 220.219 369.413 220.992 369.424C221.573 369.429 222.083 369.325 222.52 369.112C222.957 368.893 223.315 368.565 223.592 368.128C223.869 367.685 224.056 367.133 224.152 366.472H222.12V364.96H226.2C226.211 365.045 226.219 365.171 226.224 365.336C226.229 365.501 226.232 365.6 226.232 365.632C226.232 366.72 226.016 367.688 225.584 368.536C225.157 369.379 224.544 370.04 223.744 370.52C222.944 371 221.987 371.24 220.872 371.24ZM227.839 371V359.48H235.279V361.288H229.767V364.128H234.319V365.936H229.767V369.192H235.279V371H227.839ZM239.966 371V361.288H236.238V359.48H245.622V361.288H241.894V371H239.966ZM253.884 371.24C253.041 371.24 252.281 371.093 251.604 370.8C250.932 370.507 250.377 370.088 249.94 369.544C249.508 368.995 249.233 368.344 249.116 367.592L251.116 367.288C251.287 367.971 251.636 368.499 252.164 368.872C252.697 369.245 253.311 369.432 254.004 369.432C254.415 369.432 254.801 369.368 255.164 369.24C255.527 369.112 255.82 368.925 256.044 368.68C256.273 368.435 256.388 368.133 256.388 367.776C256.388 367.616 256.361 367.469 256.308 367.336C256.255 367.197 256.175 367.075 256.068 366.968C255.967 366.861 255.833 366.765 255.668 366.68C255.508 366.589 255.321 366.512 255.108 366.448L252.132 365.568C251.876 365.493 251.599 365.395 251.3 365.272C251.007 365.144 250.727 364.971 250.46 364.752C250.199 364.528 249.983 364.245 249.812 363.904C249.647 363.557 249.564 363.131 249.564 362.624C249.564 361.883 249.751 361.261 250.124 360.76C250.503 360.253 251.009 359.875 251.644 359.624C252.284 359.373 252.993 359.251 253.772 359.256C254.561 359.261 255.265 359.397 255.884 359.664C256.503 359.925 257.02 360.307 257.436 360.808C257.852 361.309 258.145 361.915 258.316 362.624L256.244 362.984C256.159 362.579 255.993 362.235 255.748 361.952C255.508 361.664 255.212 361.445 254.86 361.296C254.513 361.147 254.143 361.067 253.748 361.056C253.364 361.051 253.007 361.109 252.676 361.232C252.351 361.349 252.087 361.52 251.884 361.744C251.687 361.968 251.588 362.229 251.588 362.528C251.588 362.811 251.673 363.043 251.844 363.224C252.015 363.4 252.225 363.541 252.476 363.648C252.732 363.749 252.991 363.835 253.252 363.904L255.316 364.48C255.599 364.555 255.916 364.656 256.268 364.784C256.62 364.912 256.959 365.091 257.284 365.32C257.609 365.549 257.876 365.851 258.084 366.224C258.297 366.597 258.404 367.072 258.404 367.648C258.404 368.245 258.279 368.771 258.028 369.224C257.783 369.672 257.449 370.045 257.028 370.344C256.607 370.643 256.124 370.867 255.58 371.016C255.041 371.165 254.476 371.24 253.884 371.24ZM262.904 371V361.288H259.176V359.48H268.56V361.288H264.832V371H262.904ZM268.726 371L272.358 359.48H275.182L278.814 371H276.83L273.534 360.664H273.966L270.71 371H268.726ZM270.75 368.504V366.704H276.798V368.504H270.75ZM280.261 371V359.48H285.021C285.133 359.48 285.277 359.485 285.453 359.496C285.629 359.501 285.791 359.517 285.941 359.544C286.607 359.645 287.157 359.867 287.589 360.208C288.026 360.549 288.349 360.981 288.557 361.504C288.77 362.021 288.877 362.597 288.877 363.232C288.877 364.171 288.639 364.979 288.165 365.656C287.69 366.328 286.962 366.744 285.981 366.904L285.157 366.976H282.189V371H280.261ZM286.877 371L284.605 366.312L286.565 365.88L289.061 371H286.877ZM282.189 365.176H284.941C285.047 365.176 285.167 365.171 285.301 365.16C285.434 365.149 285.557 365.128 285.669 365.096C285.989 365.016 286.239 364.875 286.421 364.672C286.607 364.469 286.738 364.24 286.813 363.984C286.893 363.728 286.933 363.477 286.933 363.232C286.933 362.987 286.893 362.736 286.813 362.48C286.738 362.219 286.607 361.987 286.421 361.784C286.239 361.581 285.989 361.44 285.669 361.36C285.557 361.328 285.434 361.309 285.301 361.304C285.167 361.293 285.047 361.288 284.941 361.288H282.189V365.176ZM293.591 371V361.288H289.863V359.48H299.247V361.288H295.519V371H293.591ZM300.526 371V359.48H307.966V361.288H302.454V364.128H307.006V365.936H302.454V369.192H307.966V371H300.526ZM309.886 371V359.48H313.558C313.654 359.48 313.843 359.483 314.126 359.488C314.414 359.493 314.691 359.512 314.958 359.544C315.87 359.661 316.64 359.987 317.27 360.52C317.904 361.048 318.384 361.723 318.71 362.544C319.035 363.365 319.198 364.264 319.198 365.24C319.198 366.216 319.035 367.115 318.71 367.936C318.384 368.757 317.904 369.435 317.27 369.968C316.64 370.496 315.87 370.819 314.958 370.936C314.696 370.968 314.422 370.987 314.134 370.992C313.846 370.997 313.654 371 313.558 371H309.886ZM311.846 369.184H313.558C313.718 369.184 313.92 369.179 314.166 369.168C314.416 369.157 314.638 369.133 314.83 369.096C315.374 368.995 315.816 368.752 316.158 368.368C316.499 367.984 316.75 367.517 316.91 366.968C317.075 366.419 317.158 365.843 317.158 365.24C317.158 364.616 317.075 364.029 316.91 363.48C316.744 362.931 316.488 362.469 316.142 362.096C315.8 361.723 315.363 361.485 314.83 361.384C314.638 361.341 314.416 361.317 314.166 361.312C313.92 361.301 313.718 361.296 313.558 361.296H311.846V369.184Z" fill="white"/>
<defs>
<clipPath id="clip0_1_4321">
<rect width="160" height="162.4" fill="white" transform="translate(187)"/>
</clipPath>
</defs>
</svg>
